{
copyright = tangentsnowball;
date = "2012-01-05 09:51:22 +0000";
designer = "Tangent Snowball (@flamingwhopper, @nathanstaines, @jackarmley, @pete_miller)";
designerURL = www.tangentsnowball.com;
familyName = "Snowcone";
featurePrefixes = (
{
automatic = 1;
code = "languagesystem DFLT dflt;\012languagesystem latn dflt;\012";
name = Languagesystems;
}
);
fontMaster = (
{
ascender = 800;
capHeight = 700;
descender = "-200";
id = "5DF6A5AF-1C8C-47E3-A702-CFF98FD4A394";
xHeight = 500;
}
);
glyphs = (
{
glyphname = unif021;
lastChange = "2012-04-19 16:22:09 +0000";
layers = (
{
layerId = "5DF6A5AF-1C8C-47E3-A702-CFF98FD4A394";
name = Regular;
paths = (
{
closed = 1;
nodes = (
"192 535 OFFCURVE",
"141 597 OFFCURVE",
"83 599 CURVE SMOOTH",
"82 599 OFFCURVE",
"82 599 OFFCURVE",
"81 599 CURVE SMOOTH",
"59 599 OFFCURVE",
"39 590 OFFCURVE",
"24 573 CURVE SMOOTH",
"2 548 OFFCURVE",
"-8 508 OFFCURVE",
"-2 465 CURVE SMOOTH",
"8 389 OFFCURVE",
"62 331 OFFCURVE",
"124 329 CURVE SMOOTH",
"125 329 OFFCURVE",
"126 329 OFFCURVE",
"127 329 CURVE SMOOTH",
"150 329 OFFCURVE",
"168 337 OFFCURVE",
"182 352 CURVE SMOOTH",
"201 374 OFFCURVE",
"209 410 OFFCURVE",
"203 453 CURVE SMOOTH"
);
},
{
closed = 1;
nodes = (
"182 116 OFFCURVE",
"175 120 OFFCURVE",
"168 125 CURVE",
"150 131 OFFCURVE",
"130 134 OFFCURVE",
"110 134 CURVE SMOOTH",
"108 134 LINE SMOOTH",
"40 134 OFFCURVE",
"-21 100 OFFCURVE",
"-45 54 CURVE",
"-32 22 OFFCURVE",
"0 0 OFFCURVE",
"36 0 CURVE SMOOTH",
"269 0 LINE",
"269 3 OFFCURVE",
"269 6 OFFCURVE",
"269 10 CURVE SMOOTH",
"269 17 OFFCURVE",
"268 25 OFFCURVE",
"266 33 CURVE SMOOTH",
"258 64 OFFCURVE",
"229 84 OFFCURVE",
"188 111 CURVE SMOOTH"
);
},
{
closed = 1;
nodes = (
"-15 173 OFFCURVE",
"29 184 OFFCURVE",
"79 184 CURVE SMOOTH",
"85 184 OFFCURVE",
"91 184 OFFCURVE",
"97 184 CURVE",
"86 198 OFFCURVE",
"77 214 OFFCURVE",
"77 236 CURVE SMOOTH",
"77 247 OFFCURVE",
"79 259 OFFCURVE",
"84 270 CURVE",
"82 270 OFFCURVE",
"80 270 OFFCURVE",
"78 270 CURVE SMOOTH",
"26 270 OFFCURVE",
"-19 287 OFFCURVE",
"-52 316 CURVE",
"-52 153 LINE"
);
},
{
closed = 1;
nodes = (
"553 352 LINE",
"542 352 LINE",
"487 352 LINE",
"476 352 LINE",
"476 363 LINE",
"476 462 LINE",
"377 462 LINE",
"366 462 LINE",
"366 473 LINE",
"366 528 LINE",
"366 539 LINE",
"377 539 LINE",
"476 539 LINE",
"476 638 LINE",
"476 649 LINE",
"487 649 LINE",
"542 649 LINE",
"553 649 LINE",
"553 638 LINE",
"553 539 LINE",
"652 539 LINE",
"652 616 LINE SMOOTH",
"652 665 OFFCURVE",
"613 704 OFFCURVE",
"564 704 CURVE SMOOTH",
"36 704 LINE SMOOTH",
"-13 704 OFFCURVE",
"-52 665 OFFCURVE",
"-52 616 CURVE SMOOTH",
"-52 593 LINE",
"-9 634 OFFCURVE",
"53 660 OFFCURVE",
"119 660 CURVE SMOOTH",
"358 660 LINE",
"384 660 LINE",
"366 641 LINE",
"313 586 LINE",
"309 582 LINE",
"305 582 LINE",
"274 582 LINE",
"304 553 OFFCURVE",
"321 509 OFFCURVE",
"321 458 CURVE SMOOTH",
"321 407 OFFCURVE",
"295 360 OFFCURVE",
"246 322 CURVE SMOOTH",
"206 291 OFFCURVE",
"202 281 OFFCURVE",
"202 259 CURVE SMOOTH",
"202 244 OFFCURVE",
"246 211 OFFCURVE",
"263 199 CURVE SMOOTH",
"268 195 LINE SMOOTH",
"344 138 OFFCURVE",
"365 100 OFFCURVE",
"365 20 CURVE SMOOTH",
"365 13 OFFCURVE",
"365 7 OFFCURVE",
"364 0 CURVE",
"564 0 LINE SMOOTH",
"613 0 OFFCURVE",
"652 39 OFFCURVE",
"652 88 CURVE SMOOTH",
"652 462 LINE",
"553 462 LINE",
"553 363 LINE"
);
}
);
width = 600;
}
);
unicode = F021;
},
{
glyphname = unif022;
lastChange = "2012-04-19 16:22:15 +0000";
layers = (
{
layerId = "5DF6A5AF-1C8C-47E3-A702-CFF98FD4A394";
name = Regular;
paths = (
{
closed = 1;
nodes = (
"520 264 OFFCURVE",
"476 264 OFFCURVE",
"476 264 CURVE",
"411 316 LINE",
"378 316 LINE",
"369 352 LINE",
"379 367 OFFCURVE",
"403 403 OFFCURVE",
"410 422 CURVE",
"423 419 OFFCURVE",
"440 423 OFFCURVE",
"438 467 CURVE",
"467 538 OFFCURVE",
"441 547 OFFCURVE",
"425 547 CURVE",
"423 637 OFFCURVE",
"405 704 OFFCURVE",
"300 704 CURVE SMOOTH",
"195 704 OFFCURVE",
"177 637 OFFCURVE",
"175 547 CURVE",
"160 548 OFFCURVE",
"130 541 OFFCURVE",
"161 467 CURVE",
"158 422 OFFCURVE",
"177 419 OFFCURVE",
"189 422 CURVE",
"196 402 OFFCURVE",
"221 368 OFFCURVE",
"232 352 CURVE",
"222 316 LINE",
"187 316 LINE",
"124 264 LINE",
"124 264 OFFCURVE",
"80 264 OFFCURVE",
"36 220 CURVE SMOOTH",
"-8 176 OFFCURVE",
"-52 0 OFFCURVE",
"-52 0 CURVE",
"652 0 LINE",
"652 0 OFFCURVE",
"608 176 OFFCURVE",
"564 220 CURVE SMOOTH"
);
},
{
closed = 1;
nodes = (
"365 68 LINE",
"300 133 LINE",
"235 68 LINE",
"196 107 LINE",
"261 172 LINE",
"196 237 LINE",
"235 276 LINE",
"300 211 LINE",
"365 276 LINE",
"404 237 LINE",
"339 172 LINE",
"404 107 LINE"
);
}
);
width = 600;
}
);
unicode = F022;
},
{
glyphname = unif023;
lastChange = "2012-04-19 16:22:31 +0000";
layers = (
{
layerId = "5DF6A5AF-1C8C-47E3-A702-CFF98FD4A394";
name = Regular;
paths = (
{
closed = 1;
nodes = (
"127 500 LINE SMOOTH",
"110 500 OFFCURVE",
"95 492 OFFCURVE",
"85 480 CURVE SMOOTH",
"85 480 LINE",
"-40 331 LINE",
"-45 325 LINE",
"-49 318 OFFCURVE",
"-52 310 OFFCURVE",
"-52 301 CURVE SMOOTH",
"-52 292 OFFCURVE",
"-49 283 OFFCURVE",
"-45 276 CURVE",
"-40 270 LINE",
"85 121 LINE",
"85 121 LINE SMOOTH",
"95 109 OFFCURVE",
"110 101 OFFCURVE",
"127 101 CURVE SMOOTH",
"597 101 LINE SMOOTH",
"628 101 OFFCURVE",
"652 125 OFFCURVE",
"652 156 CURVE SMOOTH",
"652 301 LINE",
"652 445 LINE SMOOTH",
"652 476 OFFCURVE",
"628 500 OFFCURVE",
"597 500 CURVE SMOOTH"
);
},
{
closed = 1;
nodes = (
"75 257 OFFCURVE",
"55 276 OFFCURVE",
"55 301 CURVE SMOOTH",
"55 325 OFFCURVE",
"75 344 OFFCURVE",
"99 344 CURVE SMOOTH",
"123 344 OFFCURVE",
"143 325 OFFCURVE",
"143 301 CURVE SMOOTH",
"143 276 OFFCURVE",
"123 257 OFFCURVE",
"99 257 CURVE SMOOTH"
);
}
);
width = 600;
}
);
unicode = F023;
},
{
glyphname = unif024;
lastChange = "2012-04-19 16:22:51 +0000";
layers = (
{
layerId = "5DF6A5AF-1C8C-47E3-A702-CFF98FD4A394";
name = Regular;
paths = (
{
closed = 1;
nodes = (
"106 704 OFFCURVE",
"-52 546 OFFCURVE",
"-52 352 CURVE SMOOTH",
"-52 158 OFFCURVE",
"106 0 OFFCURVE",
"300 0 CURVE SMOOTH",
"494 0 OFFCURVE",
"652 158 OFFCURVE",
"652 352 CURVE SMOOTH",
"652 546 OFFCURVE",
"494 704 OFFCURVE",
"300 704 CURVE SMOOTH"
);
},
{
closed = 1;
nodes = (
"479 382 LINE",
"538 322 LINE",
"538 263 LINE",
"479 203 LINE",
"300 203 LINE",
"300 322 LINE",
"360 322 LINE",
"300 382 LINE",
"240 382 LINE",
"240 203 LINE",
"121 203 LINE",
"121 382 LINE",
"62 382 LINE",
"62 501 LINE",
"300 501 LINE",
"300 441 LINE",
"360 501 LINE",
"538 501 LINE",
"538 382 LINE"
);
}
);
width = 600;
}
);
unicode = F024;
},
{
glyphname = unif025;
lastChange = "2012-04-19 16:23:00 +0000";
layers = (
{
layerId = "5DF6A5AF-1C8C-47E3-A702-CFF98FD4A394";
name = Regular;
paths = (
{
closed = 1;
nodes = (
"449 401 LINE",
"466 374 OFFCURVE",
"476 342 OFFCURVE",
"476 308 CURVE SMOOTH",
"476 211 OFFCURVE",
"397 132 OFFCURVE",
"300 132 CURVE SMOOTH",
"203 132 OFFCURVE",
"124 211 OFFCURVE",
"124 308 CURVE SMOOTH",
"124 373 OFFCURVE",
"160 429 OFFCURVE",
"212 460 CURVE",
"212 352 LINE",
"432 528 LINE",
"212 704 LINE",
"212 603 LINE",
"85 565 OFFCURVE",
"-8 448 OFFCURVE",
"-8 308 CURVE SMOOTH",
"-8 138 OFFCURVE",
"130 0 OFFCURVE",
"300 0 CURVE SMOOTH",
"470 0 OFFCURVE",
"608 138 OFFCURVE",
"608 308 CURVE SMOOTH",
"608 373 OFFCURVE",
"587 434 OFFCURVE",
"553 484 CURVE"
);
}
);
width = 600;
}
);
unicode = F025;
},
{
glyphname = unif026;
lastChange = "2012-04-19 16:23:06 +0000";
layers = (
{
layerId = "5DF6A5AF-1C8C-47E3-A702-CFF98FD4A394";
name = Regular;
paths = (
{
closed = 1;
nodes = (
"564 352 LINE",
"564 264 LINE",
"36 264 LINE",
"36 352 LINE",
"-52 352 LINE",
"-52 0 LINE",
"652 0 LINE",
"652 0 LINE",
"652 352 LINE"
);
},
{
closed = 1;
nodes = (
"212 308 LINE",
"388 308 LINE",
"388 484 LINE",
"476 484 LINE",
"300 704 LINE",
"124 484 LINE",
"212 484 LINE"
);
}
);
width = 600;
}
);
unicode = F026;
},
{
glyphname = unif027;
lastChange = "2012-04-19 16:04:54 +0000";
layers = (
{
layerId = "5DF6A5AF-1C8C-47E3-A702-CFF98FD4A394";
name = Regular;
paths = (
{
closed = 1;
nodes = (
"564 352 LINE",
"564 264 LINE",
"36 264 LINE",
"36 352 LINE",
"-52 352 LINE",
"-52 0 LINE",
"652 0 LINE",
"652 0 LINE",
"652 352 LINE"
);
},
{
closed = 1;
nodes = (
"388 704 LINE",
"212 704 LINE",
"212 528 LINE",
"124 528 LINE",
"300 308 LINE",
"476 528 LINE",
"388 528 LINE"
);
}
);
width = 600;
}
);
unicode = F027;
},
{
glyphname = unif028;
lastChange = "2012-04-19 16:23:15 +0000";
layers = (
{
layerId = "5DF6A5AF-1C8C-47E3-A702-CFF98FD4A394";
name = Regular;
paths = (
{
closed = 1;
nodes = (
"476 704 LINE",
"476 0 LINE",
"300 132 LINE",
"124 0 LINE",
"124 704 LINE"
);
}
);
width = 600;
}
);
unicode = F028;
},
{
glyphname = unif029;
lastChange = "2012-04-19 16:23:21 +0000";
layers = (
{
layerId = "5DF6A5AF-1C8C-47E3-A702-CFF98FD4A394";
name = Regular;
paths = (
{
closed = 1;
nodes = (
"36 704 LINE",
"36 0 LINE",
"124 0 LINE",
"124 352 LINE",
"564 352 LINE",
"432 528 LINE",
"564 704 LINE"
);
}
);
width = 600;
}
);
unicode = F029;
},
{
glyphname = unif02a;
lastChange = "2012-04-19 16:23:27 +0000";
layers = (
{
layerId = "5DF6A5AF-1C8C-47E3-A702-CFF98FD4A394";
name = Regular;
paths = (
{
closed = 1;
nodes = (
"608 704 LINE",
"608 132 LINE",
"520 132 LINE",
"520 616 LINE",
"124 616 LINE",
"124 704 LINE"
);
},
{
closed = 1;
nodes = (
"-8 0 LINE",
"476 0 LINE",
"476 572 LINE",
"-8 572 LINE"
);
},
{
closed = 1;
nodes = (
"80 132 LINE",
"80 176 LINE",
"388 176 LINE",
"388 132 LINE"
);
},
{
closed = 1;
nodes = (
"80 220 LINE",
"80 264 LINE",
"388 264 LINE",
"388 220 LINE"
);
},
{
closed = 1;
nodes = (
"80 308 LINE",
"80 352 LINE",
"388 352 LINE",
"388 308 LINE"
);
},
{
closed = 1;
nodes = (
"80 396 LINE",
"80 440 LINE",
"388 440 LINE",
"388 396 LINE"
);
}
);
width = 600;
}
);
unicode = F02A;
},
{
glyphname = unif02b;
lastChange = "2012-04-19 16:23:34 +0000";
layers = (
{
layerId = "5DF6A5AF-1C8C-47E3-A702-CFF98FD4A394";
name = Regular;
paths = (
{
closed = 1;
nodes = (
"454 567 OFFCURVE",
"415 528 OFFCURVE",
"366 528 CURVE SMOOTH",
"317 528 OFFCURVE",
"278 567 OFFCURVE",
"278 616 CURVE SMOOTH",
"278 665 OFFCURVE",
"317 704 OFFCURVE",
"366 704 CURVE SMOOTH",
"415 704 OFFCURVE",
"454 665 OFFCURVE",
"454 616 CURVE SMOOTH"
);
},
{
closed = 1;
nodes = (
"322 88 OFFCURVE",
"410 352 OFFCURVE",
"410 396 CURVE SMOOTH",
"410 440 OFFCURVE",
"410 484 OFFCURVE",
"322 484 CURVE SMOOTH",
"234 484 OFFCURVE",
"146 352 OFFCURVE",
"146 352 CURVE",
"234 396 LINE",
"234 396 OFFCURVE",
"146 132 OFFCURVE",
"146 88 CURVE SMOOTH",
"146 44 OFFCURVE",
"146 0 OFFCURVE",
"234 0 CURVE SMOOTH",
"322 0 OFFCURVE",
"410 132 OFFCURVE",
"410 132 CURVE",
"322 88 LINE"
);
}
);
width = 600;
}
);
unicode = F02B;
},
{
glyphname = unif02c;
lastChange = "2012-04-19 16:23:39 +0000";
layers = (
{
layerId = "5DF6A5AF-1C8C-47E3-A702-CFF98FD4A394";
name = Regular;
paths = (
{
closed = 1;
nodes = (
"476 572 LINE",
"476 704 LINE",
"564 704 LINE",
"564 572 LINE"
);
},
{
closed = 1;
nodes = (
"36 572 LINE",
"36 704 LINE",
"124 704 LINE",
"124 572 LINE"
);
},
{
closed = 1;
nodes = (
"608 528 LINE",
"432 528 LINE",
"432 616 LINE",
"168 616 LINE",
"168 528 LINE",
"-8 528 LINE",
"-8 616 LINE",
"-52 616 LINE",
"-52 0 LINE",
"652 0 LINE",
"652 616 LINE",
"608 616 LINE"
);
},
{
closed = 1;
nodes = (
"-8 88 LINE",
"-8 176 LINE",
"80 176 LINE",
"80 88 LINE"
);
},
{
closed = 1;
nodes = (
"-8 220 LINE",
"-8 308 LINE",
"80 308 LINE",
"80 220 LINE"
);
},
{
closed = 1;
nodes = (
"124 88 LINE",
"124 176 LINE",
"212 176 LINE",
"212 88 LINE"
);
},
{
closed = 1;
nodes = (
"124 220 LINE",
"124 308 LINE",
"212 308 LINE",
"212 220 LINE"
);
},
{
closed = 1;
nodes = (
"256 88 LINE",
"256 176 LINE",
"344 176 LINE",
"344 88 LINE"
);
},
{
closed = 1;
nodes = (
"256 220 LINE",
"256 308 LINE",
"344 308 LINE",
"344 220 LINE"
);
},
{
closed = 1;
nodes = (
"388 88 LINE",
"388 176 LINE",
"476 176 LINE",
"476 88 LINE"
);
},
{
closed = 1;
nodes = (
"520 88 LINE",
"520 176 LINE",
"608 176 LINE",
"608 88 LINE"
);
},
{
closed = 1;
nodes = (
"520 220 LINE",
"520 308 LINE",
"608 308 LINE",
"608 220 LINE"
);
},
{
closed = 1;
nodes = (
"-8 396 LINE",
"-8 440 LINE",
"608 440 LINE",
"608 396 LINE"
);
}
);
width = 600;
}
);
unicode = F02C;
},
{
glyphname = unif02d;
lastChange = "2012-04-19 16:09:49 +0000";
layers = (
{
layerId = "5DF6A5AF-1C8C-47E3-A702-CFF98FD4A394";
name = Regular;
paths = (
{
closed = 1;
nodes = (
"564 352 LINE SMOOTH",
"564 264 LINE SMOOTH",
"36 264 LINE SMOOTH",
"36 352 LINE SMOOTH",
"-52 352 LINE SMOOTH",
"-52 0 LINE SMOOTH",
"652 0 LINE SMOOTH",
"652 0 LINE SMOOTH",
"652 352 LINE SMOOTH"
);
},
{
closed = 1;
nodes = (
"36 88 LINE SMOOTH",
"36 176 LINE SMOOTH",
"124 176 LINE SMOOTH",
"124 88 LINE SMOOTH"
);
},
{
closed = 1;
nodes = (
"80 308 LINE SMOOTH",
"520 308 LINE SMOOTH",
"520 704 LINE SMOOTH",
"80 704 LINE SMOOTH"
);
},
{
closed = 1;
nodes = (
"168 396 LINE SMOOTH",
"168 440 LINE SMOOTH",
"432 440 LINE SMOOTH",
"432 396 LINE SMOOTH"
);
},
{
closed = 1;
nodes = (
"168 484 LINE SMOOTH",
"168 528 LINE SMOOTH",
"432 528 LINE SMOOTH",
"432 484 LINE SMOOTH"
);
},
{
closed = 1;
nodes = (
"168 572 LINE SMOOTH",
"168 616 LINE SMOOTH",
"432 616 LINE SMOOTH",
"432 572 LINE SMOOTH"
);
}
);
width = 600;
}
);
unicode = F02D;
},
{
glyphname = unif02e;
lastChange = "2012-04-19 16:12:49 +0000";
layers = (
{
layerId = "5DF6A5AF-1C8C-47E3-A702-CFF98FD4A394";
name = Regular;
paths = (
{
closed = 1;
nodes = (
"300 704 LINE",
"-52 352 LINE",
"80 352 LINE",
"80 0 LINE",
"212 0 LINE",
"212 220 LINE",
"388 220 LINE",
"388 0 LINE",
"520 0 LINE",
"520 352 LINE",
"652 352 LINE"
);
}
);
width = 600;
}
);
unicode = F02E;
},
{
glyphname = unif02f;
lastChange = "2012-04-19 16:24:03 +0000";
layers = (
{
layerId = "5DF6A5AF-1C8C-47E3-A702-CFF98FD4A394";
name = Regular;
paths = (
{
closed = 1;
nodes = (
"56 704 OFFCURVE",
"-141 352 OFFCURVE",
"-141 352 CURVE SMOOTH",
"-141 352 OFFCURVE",
"56 0 OFFCURVE",
"300 0 CURVE SMOOTH",
"544 0 OFFCURVE",
"741 352 OFFCURVE",
"741 352 CURVE SMOOTH",
"741 352 OFFCURVE",
"544 704 OFFCURVE",
"300 704 CURVE SMOOTH"
);
},
{
closed = 1;
nodes = (
"180 133 OFFCURVE",
"77 235 OFFCURVE",
"77 361 CURVE SMOOTH",
"77 487 OFFCURVE",
"180 589 OFFCURVE",
"306 589 CURVE SMOOTH",
"432 589 OFFCURVE",
"534 487 OFFCURVE",
"534 361 CURVE SMOOTH",
"534 235 OFFCURVE",
"432 133 OFFCURVE",
"306 133 CURVE SMOOTH"
);
},
{
closed = 1;
nodes = (
"396 296 OFFCURVE",
"353 253 OFFCURVE",
"300 253 CURVE SMOOTH",
"247 253 OFFCURVE",
"204 296 OFFCURVE",
"204 349 CURVE SMOOTH",
"204 402 OFFCURVE",
"247 445 OFFCURVE",
"300 445 CURVE SMOOTH",
"353 445 OFFCURVE",
"396 402 OFFCURVE",
"396 349 CURVE SMOOTH"
);
}
);
width = 600;
}
);
unicode = F02F;
},
{
glyphname = unif030;
lastChange = "2012-04-19 16:24:07 +0000";
layers = (
{
layerId = "5DF6A5AF-1C8C-47E3-A702-CFF98FD4A394";
name = Regular;
paths = (
{
closed = 1;
nodes = (
"140 425 OFFCURVE",
"168 440 OFFCURVE",
"212 440 CURVE SMOOTH",
"432 440 LINE",
"432 352 LINE",
"652 528 LINE",
"432 704 LINE",
"432 616 LINE",
"212 616 LINE SMOOTH",
"36 616 OFFCURVE",
"-52 484 OFFCURVE",
"-52 264 CURVE",
"124 396 LINE"
);
},
{
closed = 1;
nodes = (
"460 279 OFFCURVE",
"432 264 OFFCURVE",
"388 264 CURVE SMOOTH",
"168 264 LINE",
"168 352 LINE",
"-52 176 LINE",
"168 0 LINE",
"168 88 LINE",
"388 88 LINE SMOOTH",
"564 88 OFFCURVE",
"652 220 OFFCURVE",
"652 440 CURVE",
"476 308 LINE"
);
}
);
width = 600;
}
);
unicode = F030;
},
{
glyphname = unif031;
lastChange = "2012-04-19 16:18:41 +0000";
layers = (
{
layerId = "5DF6A5AF-1C8C-47E3-A702-CFF98FD4A394";
name = Regular;
paths = (
{
closed = 1;
nodes = (
"476 572 LINE",
"476 704 LINE",
"564 704 LINE",
"564 572 LINE"
);
},
{
closed = 1;
nodes = (
"36 572 LINE",
"36 704 LINE",
"124 704 LINE",
"124 572 LINE"
);
},
{
closed = 1;
nodes = (
"608 528 LINE",
"432 528 LINE",
"432 616 LINE",
"168 616 LINE",
"168 528 LINE",
"-8 528 LINE",
"-8 616 LINE",
"-52 616 LINE",
"-52 0 LINE",
"652 0 LINE",
"652 616 LINE",
"608 616 LINE"
);
},
{
closed = 1;
nodes = (
"36 132 LINE",
"36 196 LINE",
"36 196 OFFCURVE",
"36 234 OFFCURVE",
"115 243 CURVE",
"97 259 OFFCURVE",
"84 289 OFFCURVE",
"84 325 CURVE SMOOTH",
"84 390 OFFCURVE",
"149 390 OFFCURVE",
"149 390 CURVE SMOOTH",
"149 390 OFFCURVE",
"213 390 OFFCURVE",
"213 325 CURVE SMOOTH",
"213 289 OFFCURVE",
"200 259 OFFCURVE",
"182 243 CURVE",
"261 234 OFFCURVE",
"262 196 OFFCURVE",
"262 196 CURVE",
"262 132 LINE"
);
},
{
closed = 1;
nodes = (
"344 132 LINE",
"344 176 LINE",
"564 176 LINE",
"564 132 LINE"
);
},
{
closed = 1;
nodes = (
"344 220 LINE",
"344 264 LINE",
"564 264 LINE",
"564 220 LINE"
);
},
{
closed = 1;
nodes = (
"344 308 LINE",
"344 352 LINE",
"564 352 LINE",
"564 308 LINE"
);
}
);
width = 600;
}
);
unicode = F031;
},
{
glyphname = unif032;
lastChange = "2012-04-19 16:24:36 +0000";
layers = (
{
layerId = "5DF6A5AF-1C8C-47E3-A702-CFF98FD4A394";
name = Regular;
paths = (
{
closed = 1;
nodes = (
"481 525 LINE",
"481 624 OFFCURVE",
"399 704 OFFCURVE",
"301 704 CURVE SMOOTH",
"202 704 OFFCURVE",
"121 624 OFFCURVE",
"121 525 CURVE",
"-39 525 LINE SMOOTH",
"-50 525 OFFCURVE",
"-59 515 OFFCURVE",
"-58 503 CURVE SMOOTH",
"12 21 LINE SMOOTH",
"13 10 OFFCURVE",
"23 0 OFFCURVE",
"35 0 CURVE SMOOTH",
"280 0 LINE SMOOTH",
"291 0 OFFCURVE",
"311 0 OFFCURVE",
"322 0 CURVE SMOOTH",
"566 0 LINE SMOOTH",
"578 0 OFFCURVE",
"588 10 OFFCURVE",
"591 21 CURVE SMOOTH",
"658 503 LINE SMOOTH",
"659 515 OFFCURVE",
"651 525 OFFCURVE",
"640 525 CURVE SMOOTH"
);
},
{
closed = 1;
nodes = (
"352 619 OFFCURVE",
"395 577 OFFCURVE",
"395 525 CURVE",
"322 525 LINE SMOOTH",
"311 525 OFFCURVE",
"291 525 OFFCURVE",
"280 525 CURVE SMOOTH",
"206 525 LINE",
"206 577 OFFCURVE",
"249 619 OFFCURVE",
"301 619 CURVE SMOOTH"
);
}
);
width = 600;
}
);
unicode = F032;
},
{
glyphname = unif033;
lastChange = "2012-04-19 16:25:15 +0000";
layers = (
{
layerId = "5DF6A5AF-1C8C-47E3-A702-CFF98FD4A394";
name = Regular;
paths = (
{
closed = 1;
nodes = (
"652 500 LINE",
"-52 500 LINE",
"-52 369 LINE",
"115 341 OFFCURVE",
"242 235 OFFCURVE",
"242 61 CURVE",
"359 61 LINE",
"359 235 OFFCURVE",
"486 341 OFFCURVE",
"652 369 CURVE"
);
}
);
width = 600;
}
);
unicode = F033;
},
{
glyphname = unif034;
lastChange = "2012-04-19 16:25:32 +0000";
layers = (
{
layerId = "5DF6A5AF-1C8C-47E3-A702-CFF98FD4A394";
name = Regular;
paths = (
{
closed = 1;
nodes = (
"652 615 LINE",
"-52 615 LINE",
"-52 307 LINE",
"115 280 OFFCURVE",
"241 174 OFFCURVE",
"241 0 CURVE",
"358 0 LINE",
"358 174 OFFCURVE",
"485 280 OFFCURVE",
"652 307 CURVE"
);
}
);
width = 600;
}
);
unicode = F034;
},
{
glyphname = unif035;
lastChange = "2012-04-19 16:25:56 +0000";
layers = (
{
layerId = "5DF6A5AF-1C8C-47E3-A702-CFF98FD4A394";
name = Regular;
paths = (
{
closed = 1;
nodes = (
"652 500 LINE",
"-52 500 LINE",
"-52 412 LINE",
"115 383 OFFCURVE",
"256 279 OFFCURVE",
"256 105 CURVE",
"344 105 LINE",
"344 279 OFFCURVE",
"485 383 OFFCURVE",
"652 412 CURVE"
);
}
);
width = 600;
}
);
unicode = F035;
},
{
glyphname = unif036;
lastChange = "2012-04-19 16:26:28 +0000";
layers = (
{
layerId = "5DF6A5AF-1C8C-47E3-A702-CFF98FD4A394";
name = Regular;
paths = (
{
closed = 1;
nodes = (
"226 0 LINE SMOOTH",
"199 0 OFFCURVE",
"176 18 OFFCURVE",
"173 46 CURVE",
"172 48 OFFCURVE",
"167 73 OFFCURVE",
"145 98 CURVE SMOOTH",
"115 133 OFFCURVE",
"67 150 OFFCURVE",
"3 150 CURVE SMOOTH",
"-27 150 OFFCURVE",
"-51 174 OFFCURVE",
"-51 203 CURVE SMOOTH",
"-52 424 LINE SMOOTH",
"-52 438 OFFCURVE",
"-47 451 OFFCURVE",
"-36 461 CURVE SMOOTH",
"-26 472 OFFCURVE",
"-13 477 OFFCURVE",
"2 477 CURVE SMOOTH",
"598 477 LINE SMOOTH",
"628 477 OFFCURVE",
"652 453 OFFCURVE",
"652 424 CURVE SMOOTH",
"652 211 LINE SMOOTH",
"652 183 OFFCURVE",
"629 159 OFFCURVE",
"600 158 CURVE SMOOTH",
"597 158 OFFCURVE",
"553 156 OFFCURVE",
"511 139 CURVE SMOOTH",
"450 114 OFFCURVE",
"443 78 OFFCURVE",
"443 54 CURVE SMOOTH",
"443 23 OFFCURVE",
"419 0 OFFCURVE",
"390 0 CURVE SMOOTH"
);
},
{
closed = 1;
nodes = (
"343 107 LINE",
"360 166 OFFCURVE",
"405 212 OFFCURVE",
"475 239 CURVE SMOOTH",
"499 249 OFFCURVE",
"524 255 OFFCURVE",
"545 259 CURVE",
"545 370 LINE",
"55 370 LINE",
"56 254 LINE",
"148 242 OFFCURVE",
"201 199 OFFCURVE",
"232 162 CURVE SMOOTH",
"247 143 OFFCURVE",
"258 124 OFFCURVE",
"265 107 CURVE"
);
}
);
width = 600;
}
);
unicode = F036;
},
{
glyphname = unif037;
lastChange = "2012-04-19 16:26:52 +0000";
layers = (
{
layerId = "5DF6A5AF-1C8C-47E3-A702-CFF98FD4A394";
name = Regular;
paths = (
{
closed = 1;
nodes = (
"105 704 OFFCURVE",
"-52 547 OFFCURVE",
"-52 352 CURVE SMOOTH",
"-52 157 OFFCURVE",
"105 0 OFFCURVE",
"300 0 CURVE SMOOTH",
"494 0 OFFCURVE",
"652 157 OFFCURVE",
"652 352 CURVE SMOOTH",
"652 547 OFFCURVE",
"494 704 OFFCURVE",
"300 704 CURVE SMOOTH"
);
},
{
closed = 1;
nodes = (
"178 132 OFFCURVE",
"80 230 OFFCURVE",
"80 352 CURVE SMOOTH",
"80 474 OFFCURVE",
"178 572 OFFCURVE",
"300 572 CURVE SMOOTH",
"422 572 OFFCURVE",
"520 474 OFFCURVE",
"520 352 CURVE SMOOTH",
"520 230 OFFCURVE",
"422 132 OFFCURVE",
"300 132 CURVE SMOOTH"
);
},
{
closed = 1;
nodes = (
"387 303 OFFCURVE",
"349 264 OFFCURVE",
"300 264 CURVE SMOOTH",
"251 264 OFFCURVE",
"212 303 OFFCURVE",
"212 352 CURVE SMOOTH",
"212 401 OFFCURVE",
"251 440 OFFCURVE",
"300 440 CURVE SMOOTH",
"349 440 OFFCURVE",
"387 401 OFFCURVE",
"387 352 CURVE SMOOTH"
);
}
);
width = 600;
}
);
unicode = F037;
},
{
glyphname = unif038;
lastChange = "2012-04-19 16:27:15 +0000";
layers = (
{
layerId = "5DF6A5AF-1C8C-47E3-A702-CFF98FD4A394";
name = Regular;
paths = (
{
closed = 1;
nodes = (
"79 0 LINE",
"521 0 LINE",
"521 484 LINE",
"79 484 LINE"
);
},
{
closed = 1;
nodes = (
"212 131 LINE",
"212 352 LINE",
"256 352 LINE",
"256 131 LINE"
);
},
{
closed = 1;
nodes = (
"344 131 LINE",
"344 352 LINE",
"388 352 LINE",
"388 131 LINE"
);
},
{
closed = 1;
nodes = (
"388 704 LINE",
"212 704 LINE",
"212 616 LINE",
"36 616 LINE",
"36 529 LINE",
"564 529 LINE",
"564 616 LINE",
"388 616 LINE"
);
},
{
closed = 1;
nodes = (
"256 616 LINE",
"256 660 LINE",
"344 660 LINE",
"344 616 LINE"
);
}
);
width = 600;
}
);
unicode = F038;
},
{
glyphname = unif039;
lastChange = "2012-04-19 16:27:29 +0000";
layers = (
{
layerId = "5DF6A5AF-1C8C-47E3-A702-CFF98FD4A394";
name = Regular;
paths = (
{
closed = 1;
nodes = (
"344 572 LINE",
"300 572 LINE",
"300 660 LINE",
"212 660 LINE",
"212 572 LINE",
"168 572 LINE",
"168 660 LINE",
"80 660 LINE",
"80 572 LINE",
"36 572 LINE",
"36 660 LINE",
"-53 660 LINE",
"-53 0 LINE",
"432 0 LINE",
"432 660 LINE",
"344 660 LINE"
);
},
{
closed = 1;
nodes = (
"36 132 LINE",
"36 176 LINE",
"344 176 LINE",
"344 132 LINE"
);
},
{
closed = 1;
nodes = (
"36 220 LINE",
"36 264 LINE",
"344 264 LINE",
"344 220 LINE"
);
},
{
closed = 1;
nodes = (
"36 308 LINE",
"36 352 LINE",
"344 352 LINE",
"344 308 LINE"
);
},
{
closed = 1;
nodes = (
"36 396 LINE",
"36 440 LINE",
"344 440 LINE",
"344 396 LINE"
);
},
{
closed = 1;
nodes = (
"476 528 LINE",
"476 0 LINE",
"653 0 LINE",
"653 528 LINE"
);
},
{
closed = 1;
nodes = (
"653 572 LINE",
"564 704 LINE",
"476 572 LINE"
);
}
);
width = 600;
}
);
unicode = F039;
},
{
glyphname = unif03a;
lastChange = "2012-04-19 16:27:40 +0000";
layers = (
{
layerId = "5DF6A5AF-1C8C-47E3-A702-CFF98FD4A394";
name = Regular;
paths = (
{
closed = 1;
nodes = (
"-51 483 LINE",
"651 483 LINE",
"300 704 LINE"
);
},
{
closed = 1;
nodes = (
"124 440 LINE",
"79 440 LINE",
"79 176 LINE",
"124 176 LINE"
);
},
{
closed = 1;
nodes = (
"256 440 LINE",
"212 440 LINE",
"212 176 LINE",
"256 176 LINE"
);
},
{
closed = 1;
nodes = (
"564 88 LINE",
"564 132 LINE",
"36 132 LINE",
"36 88 LINE",
"-8 88 LINE",
"-8 44 LINE",
"-51 44 LINE",
"-51 0 LINE",
"651 0 LINE",
"651 44 LINE",
"608 44 LINE",
"608 88 LINE"
);
},
{
closed = 1;
nodes = (
"388 440 LINE",
"344 440 LINE",
"344 176 LINE",
"388 176 LINE"
);
},
{
closed = 1;
nodes = (
"520 440 LINE",
"476 440 LINE",
"476 176 LINE",
"520 176 LINE"
);
}
);
width = 600;
}
);
unicode = F03A;
},
{
glyphname = unif03b;
lastChange = "2012-04-19 16:33:38 +0000";
layers = (
{
layerId = "5DF6A5AF-1C8C-47E3-A702-CFF98FD4A394";
name = Regular;
paths = (
{
closed = 1;
nodes = (
"227 704 OFFCURVE",
"168 645 OFFCURVE",
"168 572 CURVE SMOOTH",
"168 528 LINE",
"212 528 LINE",
"212 572 LINE SMOOTH",
"212 621 OFFCURVE",
"251 660 OFFCURVE",
"300 660 CURVE SMOOTH",
"349 660 OFFCURVE",
"388 621 OFFCURVE",
"388 572 CURVE SMOOTH",
"388 352 LINE",
"388 308 LINE",
"388 176 LINE SMOOTH",
"388 103 OFFCURVE",
"373 44 OFFCURVE",
"300 44 CURVE SMOOTH",
"227 44 OFFCURVE",
"212 103 OFFCURVE",
"212 176 CURVE SMOOTH",
"212 440 LINE",
"168 440 LINE",
"168 176 LINE SMOOTH",
"168 79 OFFCURVE",
"203 0 OFFCURVE",
"300 0 CURVE SMOOTH",
"397 0 OFFCURVE",
"432 79 OFFCURVE",
"432 176 CURVE SMOOTH",
"432 308 LINE",
"432 352 LINE",
"432 572 LINE SMOOTH",
"432 645 OFFCURVE",
"373 704 OFFCURVE",
"300 704 CURVE SMOOTH"
);
}
);
width = 600;
}
);
unicode = F03B;
},
{
glyphname = unif03c;
lastChange = "2012-04-19 16:34:13 +0000";
layers = (
{
layerId = "5DF6A5AF-1C8C-47E3-A702-CFF98FD4A394";
name = Regular;
paths = (
{
closed = 1;
nodes = (
"432 176 LINE SMOOTH",
"432 103 OFFCURVE",
"373 44 OFFCURVE",
"300 44 CURVE SMOOTH",
"227 44 OFFCURVE",
"168 103 OFFCURVE",
"168 176 CURVE SMOOTH",
"168 572 LINE SMOOTH",
"168 621 OFFCURVE",
"207 660 OFFCURVE",
"256 660 CURVE SMOOTH",
"305 660 OFFCURVE",
"344 621 OFFCURVE",
"344 572 CURVE SMOOTH",
"344 220 LINE SMOOTH",
"344 196 OFFCURVE",
"324 176 OFFCURVE",
"300 176 CURVE SMOOTH",
"276 176 OFFCURVE",
"256 196 OFFCURVE",
"256 220 CURVE SMOOTH",
"256 440 LINE",
"212 440 LINE",
"212 440 LINE",
"212 220 LINE SMOOTH",
"212 171 OFFCURVE",
"251 132 OFFCURVE",
"300 132 CURVE SMOOTH",
"349 132 OFFCURVE",
"388 171 OFFCURVE",
"388 220 CURVE SMOOTH",
"388 572 LINE SMOOTH",
"388 645 OFFCURVE",
"329 704 OFFCURVE",
"256 704 CURVE SMOOTH",
"183 704 OFFCURVE",
"124 645 OFFCURVE",
"124 572 CURVE SMOOTH",
"124 176 LINE SMOOTH",
"124 79 OFFCURVE",
"203 0 OFFCURVE",
"300 0 CURVE SMOOTH",
"397 0 OFFCURVE",
"476 79 OFFCURVE",
"476 176 CURVE SMOOTH",
"476 440 LINE",
"432 440 LINE"
);
}
);
width = 600;
}
);
unicode = F03C;
},
{
glyphname = unif03d;
lastChange = "2012-04-19 16:35:06 +0000";
layers = (
{
layerId = "5DF6A5AF-1C8C-47E3-A702-CFF98FD4A394";
name = Regular;
paths = (
{
closed = 1;
nodes = (
"212 704 LINE",
"36 704 LINE",
"36 264 LINE",
"-52 264 LINE",
"124 0 LINE",
"300 264 LINE",
"212 264 LINE"
);
},
{
closed = 1;
nodes = (
"388 0 LINE",
"564 0 LINE",
"564 440 LINE",
"652 440 LINE",
"476 704 LINE",
"300 440 LINE",
"388 440 LINE"
);
}
);
width = 600;
}
);
unicode = F03D;
},
{
glyphname = unif03e;
lastChange = "2012-04-19 16:36:24 +0000";
layers = (
{
layerId = "5DF6A5AF-1C8C-47E3-A702-CFF98FD4A394";
name = Regular;
paths = (
{
closed = 1;
nodes = (
"382 433 OFFCURVE",
"388 458 OFFCURVE",
"388 484 CURVE SMOOTH",
"388 606 OFFCURVE",
"289 704 OFFCURVE",
"168 704 CURVE SMOOTH",
"46 704 OFFCURVE",
"-52 606 OFFCURVE",
"-52 484 CURVE SMOOTH",
"-52 363 OFFCURVE",
"46 264 OFFCURVE",
"168 264 CURVE SMOOTH",
"194 264 OFFCURVE",
"219 269 OFFCURVE",
"243 278 CURVE",
"300 221 LINE",
"521 0 LINE",
"652 0 LINE",
"652 130 LINE",
"374 409 LINE"
);
},
{
closed = 1;
nodes = (
"65 484 OFFCURVE",
"36 514 OFFCURVE",
"36 550 CURVE SMOOTH",
"36 586 OFFCURVE",
"65 616 OFFCURVE",
"102 616 CURVE SMOOTH",
"138 616 OFFCURVE",
"168 586 OFFCURVE",
"168 550 CURVE SMOOTH",
"168 514 OFFCURVE",
"138 484 OFFCURVE",
"102 484 CURVE SMOOTH"
);
},
{
closed = 1;
nodes = (
"388 308 LINE",
"388 352 LINE",
"608 132 LINE",
"564 132 LINE"
);
}
);
width = 600;
}
);
unicode = F03E;
},
{
glyphname = unif040;
lastChange = "2012-04-19 16:37:06 +0000";
layers = (
{
layerId = "5DF6A5AF-1C8C-47E3-A702-CFF98FD4A394";
name = Regular;
paths = (
{
closed = 1;
nodes = (
"432 572 LINE",
"168 572 LINE",
"168 484 LINE",
"-52 484 LINE",
"-52 176 LINE",
"36 176 LINE",
"36 220 LINE",
"124 220 LINE",
"124 176 LINE",
"476 176 LINE",
"476 220 LINE",
"564 220 LINE",
"564 176 LINE",
"652 176 LINE",
"652 132 LINE",
"564 132 LINE",
"564 88 LINE",
"476 88 LINE",
"476 132 LINE",
"124 132 LINE",
"124 88 LINE",
"36 88 LINE",
"36 132 LINE",
"-52 132 LINE",
"-52 0 LINE",
"652 0 LINE",
"652 484 LINE",
"432 484 LINE"
);
},
{
closed = 1;
nodes = (
"388 528 LINE",
"388 484 LINE",
"212 484 LINE",
"212 528 LINE"
);
}
);
width = 600;
}
);
unicode = F040;
},
{
glyphname = unif041;
lastChange = "2012-04-19 16:40:00 +0000";
layers = (
{
layerId = "5DF6A5AF-1C8C-47E3-A702-CFF98FD4A394";
name = Regular;
paths = (
{
closed = 1;
nodes = (
"300 409 LINE",
"117 592 LINE",
"25 500 LINE",
"208 317 LINE",
"25 134 LINE",
"117 42 LINE",
"300 225 LINE",
"483 42 LINE",
"575 134 LINE",
"392 317 LINE",
"575 500 LINE",
"483 592 LINE"
);
}
);
width = 600;
}
);
unicode = F041;
},
{
glyphname = unif042;
lastChange = "2012-04-23 11:26:39 +0000";
layers = (
{
layerId = "5DF6A5AF-1C8C-47E3-A702-CFF98FD4A394";
name = Regular;
paths = (
{
closed = 1;
nodes = (
"652 280 LINE",
"388 500 LINE",
"-52 500 LINE",
"-52 60 LINE",
"388 60 LINE"
);
},
{
closed = 1;
nodes = (
"89 441 LINE",
"190 339 LINE",
"292 441 LINE",
"353 380 LINE",
"251 278 LINE",
"353 177 LINE",
"292 116 LINE",
"190 217 LINE",
"89 116 LINE",
"28 177 LINE",
"129 278 LINE",
"28 380 LINE"
);
}
);
width = 600;
}
);
unicode = F042;
},
{
glyphname = unif043;
lastChange = "2012-04-23 11:26:54 +0000";
layers = (
{
layerId = "5DF6A5AF-1C8C-47E3-A702-CFF98FD4A394";
name = Regular;
paths = (
{
closed = 1;
nodes = (
"-52 280 LINE",
"212 60 LINE",
"652 60 LINE",
"652 500 LINE",
"212 500 LINE"
);
},
{
closed = 1;
nodes = (
"511 119 LINE",
"410 221 LINE",
"308 119 LINE",
"247 180 LINE",
"349 282 LINE",
"247 383 LINE",
"308 444 LINE",
"410 343 LINE",
"511 444 LINE",
"572 383 LINE",
"471 282 LINE",
"572 180 LINE"
);
}
);
width = 600;
}
);
unicode = F043;
},
{
glyphname = unif044;
lastChange = "2012-04-19 16:44:22 +0000";
layers = (
{
layerId = "5DF6A5AF-1C8C-47E3-A702-CFF98FD4A394";
name = Regular;
paths = (
{
closed = 1;
nodes = (
"256 440 LINE",
"124 528 LINE",
"-52 528 LINE",
"-52 0 LINE",
"652 0 LINE",
"652 440 LINE"
);
},
{
closed = 1;
nodes = (
"168 660 LINE",
"-8 660 LINE",
"-8 572 LINE",
"168 572 LINE",
"300 484 LINE",
"652 484 LINE",
"652 572 LINE",
"300 572 LINE"
);
}
);
width = 600;
}
);
unicode = F044;
},
{
glyphname = unif045;
lastChange = "2012-04-23 11:09:00 +0000";
layers = (
{
layerId = "5DF6A5AF-1C8C-47E3-A702-CFF98FD4A394";
name = Regular;
paths = (
{
closed = 1;
nodes = (
"564 704 LINE",
"432 704 LINE",
"432 660 LINE",
"-52 660 LINE",
"-52 572 LINE",
"432 572 LINE",
"432 528 LINE",
"564 528 LINE",
"564 572 LINE",
"652 572 LINE",
"652 660 LINE",
"564 660 LINE"
);
},
{
closed = 1;
nodes = (
"36 440 LINE",
"36 396 LINE",
"-52 396 LINE",
"-52 308 LINE",
"36 308 LINE",
"36 264 LINE",
"168 264 LINE",
"168 308 LINE",
"652 308 LINE",
"652 396 LINE",
"168 396 LINE",
"168 440 LINE"
);
},
{
closed = 1;
nodes = (
"432 176 LINE",
"432 132 LINE",
"-52 132 LINE",
"-52 44 LINE",
"432 44 LINE",
"432 0 LINE",
"564 0 LINE",
"564 44 LINE",
"652 44 LINE",
"652 132 LINE",
"564 132 LINE",
"564 176 LINE"
);
}
);
width = 600;
}
);
unicode = F045;
},
{
glyphname = unif046;
lastChange = "2012-04-23 11:50:09 +0000";
layers = (
{
layerId = "5DF6A5AF-1C8C-47E3-A702-CFF98FD4A394";
name = Regular;
paths = (
{
closed = 1;
nodes = (
"652 158 OFFCURVE",
"494 0 OFFCURVE",
"300 0 CURVE SMOOTH",
"106 0 OFFCURVE",
"-52 158 OFFCURVE",
"-52 352 CURVE SMOOTH",
"-52 546 OFFCURVE",
"106 704 OFFCURVE",
"300 704 CURVE SMOOTH",
"494 704 OFFCURVE",
"652 546 OFFCURVE",
"652 352 CURVE SMOOTH"
);
}
);
width = 600;
}
);
unicode = F046;
},
{
glyphname = unif047;
lastChange = "2012-04-30 10:45:39 +0000";
layers = (
{
layerId = "5DF6A5AF-1C8C-47E3-A702-CFF98FD4A394";
name = Regular;
paths = (
{
closed = 1;
nodes = (
"36 396 LINE",
"564 396 LINE",
"300 704 LINE"
);
},
{
closed = 1;
nodes = (
"564 308 LINE",
"36 308 LINE",
"300 0 LINE"
);
}
);
width = 600;
}
);
unicode = F047;
},
{
glyphname = unif048;
lastChange = "2012-04-30 10:46:00 +0000";
layers = (
{
layerId = "5DF6A5AF-1C8C-47E3-A702-CFF98FD4A394";
name = Regular;
paths = (
{
closed = 1;
nodes = (
"36 192 LINE",
"564 192 LINE",
"300 500 LINE"
);
}
);
width = 600;
}
);
unicode = F048;
},
{
glyphname = unif049;
lastChange = "2012-04-30 10:46:16 +0000";
layers = (
{
layerId = "5DF6A5AF-1C8C-47E3-A702-CFF98FD4A394";
name = Regular;
paths = (
{
closed = 1;
nodes = (
"564 500 LINE",
"36 500 LINE",
"300 192 LINE"
);
}
);
width = 600;
}
);
unicode = F049;
},
{
glyphname = unif04a;
lastChange = "2012-04-30 10:46:27 +0000";
layers = (
{
layerId = "5DF6A5AF-1C8C-47E3-A702-CFF98FD4A394";
name = Regular;
paths = (
{
closed = 1;
nodes = (
"-52 704 LINE",
"199 381 LINE",
"199 0 LINE",
"401 101 LINE",
"401 381 LINE",
"652 704 LINE"
);
}
);
width = 600;
}
);
unicode = F04A;
},
{
glyphname = unif04b;
lastChange = "2012-05-08 14:11:25 +0000";
layers = (
{
layerId = "5DF6A5AF-1C8C-47E3-A702-CFF98FD4A394";
name = Regular;
paths = (
{
closed = 1;
nodes = (
"106 704 OFFCURVE",
"-52 546 OFFCURVE",
"-52 352 CURVE SMOOTH",
"-52 158 OFFCURVE",
"106 0 OFFCURVE",
"300 0 CURVE SMOOTH",
"494 0 OFFCURVE",
"652 158 OFFCURVE",
"652 352 CURVE SMOOTH",
"652 546 OFFCURVE",
"494 704 OFFCURVE",
"300 704 CURVE SMOOTH"
);
},
{
closed = 1;
nodes = (
"379 195 OFFCURVE",
"316 101 OFFCURVE",
"253 101 CURVE SMOOTH",
"190 101 OFFCURVE",
"190 132 OFFCURVE",
"190 163 CURVE",
"190 195 OFFCURVE",
"253 383 OFFCURVE",
"253 383 CURVE",
"190 352 LINE",
"190 352 OFFCURVE",
"253 446 OFFCURVE",
"316 446 CURVE SMOOTH",
"379 446 OFFCURVE",
"379 415 OFFCURVE",
"379 383 CURVE SMOOTH",
"379 352 OFFCURVE",
"316 163 OFFCURVE",
"316 163 CURVE",
"379 195 LINE"
);
},
{
closed = 1;
nodes = (
"312 478 OFFCURVE",
"284 506 OFFCURVE",
"284 541 CURVE SMOOTH",
"284 575 OFFCURVE",
"312 603 OFFCURVE",
"347 603 CURVE SMOOTH",
"382 603 OFFCURVE",
"410 575 OFFCURVE",
"410 541 CURVE SMOOTH",
"410 506 OFFCURVE",
"382 478 OFFCURVE",
"347 478 CURVE SMOOTH"
);
}
);
width = 600;
}
);
unicode = F04B;
},
{
glyphname = unif04c;
lastChange = "2012-05-08 14:11:38 +0000";
layers = (
{
layerId = "5DF6A5AF-1C8C-47E3-A702-CFF98FD4A394";
name = Regular;
paths = (
{
closed = 1;
nodes = (
"-52 220 LINE",
"-52 660 LINE",
"388 660 LINE",
"388 220 LINE"
);
},
{
closed = 1;
nodes = (
"432 220 LINE",
"432 440 LINE",
"432 440 OFFCURVE",
"432 440 OFFCURVE",
"520 440 CURVE SMOOTH",
"608 440 OFFCURVE",
"652 220 OFFCURVE",
"652 220 CURVE SMOOTH"
);
},
{
closed = 1;
nodes = (
"168 39 OFFCURVE",
"129 0 OFFCURVE",
"80 0 CURVE SMOOTH",
"31 0 OFFCURVE",
"-8 39 OFFCURVE",
"-8 88 CURVE SMOOTH",
"-8 137 OFFCURVE",
"31 176 OFFCURVE",
"80 176 CURVE SMOOTH",
"129 176 OFFCURVE",
"168 137 OFFCURVE",
"168 88 CURVE SMOOTH"
);
},
{
closed = 1;
nodes = (
"608 39 OFFCURVE",
"569 0 OFFCURVE",
"520 0 CURVE SMOOTH",
"471 0 OFFCURVE",
"432 39 OFFCURVE",
"432 88 CURVE SMOOTH",
"432 137 OFFCURVE",
"471 176 OFFCURVE",
"520 176 CURVE SMOOTH",
"569 176 OFFCURVE",
"608 137 OFFCURVE",
"608 88 CURVE SMOOTH"
);
}
);
width = 600;
}
);
unicode = F04C;
},
{
glyphname = unif04d;
lastChange = "2012-05-08 14:11:51 +0000";
layers = (
{
layerId = "5DF6A5AF-1C8C-47E3-A702-CFF98FD4A394";
name = Regular;
paths = (
{
closed = 1;
nodes = (
"652 440 LINE SMOOTH",
"652 489 OFFCURVE",
"613 528 OFFCURVE",
"564 528 CURVE SMOOTH",
"36 528 LINE SMOOTH",
"-13 528 OFFCURVE",
"-52 489 OFFCURVE",
"-52 440 CURVE SMOOTH",
"-52 396 LINE",
"652 396 LINE"
);
},
{
closed = 1;
nodes = (
"-52 88 LINE SMOOTH",
"-52 39 OFFCURVE",
"-13 0 OFFCURVE",
"36 0 CURVE SMOOTH",
"564 0 LINE SMOOTH",
"613 0 OFFCURVE",
"652 39 OFFCURVE",
"652 88 CURVE SMOOTH",
"652 308 LINE",
"-52 308 LINE"
);
},
{
closed = 1;
nodes = (
"36 176 LINE",
"36 220 LINE",
"168 220 LINE",
"168 176 LINE"
);
},
{
closed = 1;
nodes = (
"212 176 LINE",
"212 220 LINE",
"388 220 LINE",
"388 176 LINE"
);
},
{
closed = 1;
nodes = (
"432 176 LINE",
"432 220 LINE",
"564 220 LINE",
"564 176 LINE"
);
}
);
width = 600;
}
);
unicode = F04D;
},
{
glyphname = unif04e;
lastChange = "2012-05-08 14:12:36 +0000";
layers = (
{
layerId = "5DF6A5AF-1C8C-47E3-A702-CFF98FD4A394";
name = Regular;
paths = (
{
closed = 1;
nodes = (
"106 704 OFFCURVE",
"-52 546 OFFCURVE",
"-52 352 CURVE SMOOTH",
"-52 158 OFFCURVE",
"106 0 OFFCURVE",
"300 0 CURVE SMOOTH",
"494 0 OFFCURVE",
"652 158 OFFCURVE",
"652 352 CURVE SMOOTH",
"652 546 OFFCURVE",
"494 704 OFFCURVE",
"300 704 CURVE SMOOTH"
);
},
{
closed = 1;
nodes = (
"271 143 OFFCURVE",
"247 166 OFFCURVE",
"247 195 CURVE SMOOTH",
"247 224 OFFCURVE",
"271 248 OFFCURVE",
"300 248 CURVE SMOOTH",
"329 248 OFFCURVE",
"352 224 OFFCURVE",
"352 195 CURVE SMOOTH",
"352 166 OFFCURVE",
"329 143 OFFCURVE",
"300 143 CURVE SMOOTH"
);
},
{
closed = 1;
nodes = (
"347 322 OFFCURVE",
"343 309 OFFCURVE",
"343 297 CURVE SMOOTH",
"343 280 LINE",
"257 280 LINE",
"257 305 LINE SMOOTH",
"257 328 OFFCURVE",
"263 343 OFFCURVE",
"277 357 CURVE SMOOTH",
"319 397 OFFCURVE",
"350 416 OFFCURVE",
"350 442 CURVE SMOOTH",
"350 468 OFFCURVE",
"332 482 OFFCURVE",
"309 482 CURVE SMOOTH",
"273 482 OFFCURVE",
"255 460 OFFCURVE",
"252 432 CURVE",
"164 437 LINE",
"172 518 OFFCURVE",
"228 561 OFFCURVE",
"307 561 CURVE SMOOTH",
"377 561 OFFCURVE",
"436 522 OFFCURVE",
"436 449 CURVE SMOOTH",
"436 405 OFFCURVE",
"419 379 OFFCURVE",
"365 336 CURVE SMOOTH"
);
}
);
width = 600;
}
);
unicode = F04E;
},
{
glyphname = unif050;
lastChange = "2012-05-08 14:12:50 +0000";
layers = (
{
layerId = "5DF6A5AF-1C8C-47E3-A702-CFF98FD4A394";
name = Regular;
paths = (
{
closed = 1;
nodes = (
"193 0 LINE",
"264 29 LINE",
"19 633 LINE",
"-52 604 LINE"
);
},
{
closed = 1;
nodes = (
"502 648 OFFCURVE",
"402 510 OFFCURVE",
"252 659 CURVE",
"252 659 LINE",
"146 768 OFFCURVE",
"54 644 OFFCURVE",
"54 644 CURVE",
"203 284 LINE",
"203 284 OFFCURVE",
"266 461 OFFCURVE",
"453 273 CURVE",
"453 273 LINE",
"560 164 OFFCURVE",
"652 289 OFFCURVE",
"652 289 CURVE",
"502 648 LINE"
);
}
);
width = 600;
}
);
unicode = F050;
},
{
glyphname = unif051;
lastChange = "2012-05-08 14:13:02 +0000";
layers = (
{
layerId = "5DF6A5AF-1C8C-47E3-A702-CFF98FD4A394";
name = Regular;
paths = (
{
closed = 1;
nodes = (
"648 442 OFFCURVE",
"632 469 OFFCURVE",
"602 496 CURVE SMOOTH",
"571 523 OFFCURVE",
"524 551 OFFCURVE",
"462 551 CURVE SMOOTH",
"400 551 OFFCURVE",
"353 523 OFFCURVE",
"323 496 CURVE SMOOTH",
"314 487 OFFCURVE",
"306 479 OFFCURVE",
"300 471 CURVE",
"293 479 OFFCURVE",
"285 487 OFFCURVE",
"275 496 CURVE SMOOTH",
"245 523 OFFCURVE",
"198 551 OFFCURVE",
"136 551 CURVE SMOOTH",
"73 551 OFFCURVE",
"27 523 OFFCURVE",
"-3 496 CURVE SMOOTH",
"-33 468 OFFCURVE",
"-48 441 OFFCURVE",
"-49 440 CURVE",
"-52 428 LINE",
"-52 26 LINE",
"-4 14 LINE",
"-4 13 LINE",
"-3 15 OFFCURVE",
"10 37 OFFCURVE",
"34 58 CURVE SMOOTH",
"58 79 OFFCURVE",
"91 98 OFFCURVE",
"136 98 CURVE SMOOTH",
"182 98 OFFCURVE",
"217 78 OFFCURVE",
"241 56 CURVE SMOOTH",
"254 45 OFFCURVE",
"263 34 OFFCURVE",
"269 26 CURVE SMOOTH",
"272 22 OFFCURVE",
"274 18 OFFCURVE",
"276 16 CURVE SMOOTH",
"276 15 OFFCURVE",
"277 14 OFFCURVE",
"277 14 CURVE",
"282 6 OFFCURVE",
"290 0 OFFCURVE",
"300 0 CURVE SMOOTH",
"310 0 OFFCURVE",
"319 6 OFFCURVE",
"323 14 CURVE",
"326 19 OFFCURVE",
"338 39 OFFCURVE",
"360 58 CURVE SMOOTH",
"384 79 OFFCURVE",
"417 98 OFFCURVE",
"462 98 CURVE SMOOTH",
"508 98 OFFCURVE",
"543 78 OFFCURVE",
"568 56 CURVE SMOOTH",
"580 45 OFFCURVE",
"589 34 OFFCURVE",
"595 26 CURVE SMOOTH",
"598 22 OFFCURVE",
"601 18 OFFCURVE",
"602 16 CURVE SMOOTH",
"603 15 OFFCURVE",
"603 14 OFFCURVE",
"604 14 CURVE",
"604 13 OFFCURVE",
"604 13 OFFCURVE",
"604 13 CURVE",
"604 13 LINE",
"652 26 LINE",
"652 428 LINE",
"649 440 LINE"
);
},
{
closed = 1;
nodes = (
"244 122 OFFCURVE",
"197 150 OFFCURVE",
"136 150 CURVE SMOOTH",
"135 150 LINE SMOOTH",
"75 150 OFFCURVE",
"29 123 OFFCURVE",
"-1 96 CURVE",
"-1 420 LINE",
"5 428 OFFCURVE",
"16 444 OFFCURVE",
"34 460 CURVE SMOOTH",
"58 481 OFFCURVE",
"91 500 OFFCURVE",
"136 500 CURVE SMOOTH",
"182 500 OFFCURVE",
"217 479 OFFCURVE",
"241 458 CURVE SMOOTH",
"254 447 OFFCURVE",
"263 436 OFFCURVE",
"269 427 CURVE SMOOTH",
"271 425 OFFCURVE",
"273 422 OFFCURVE",
"274 420 CURVE",
"274 95 LINE"
);
},
{
closed = 1;
nodes = (
"570 122 OFFCURVE",
"523 150 OFFCURVE",
"462 150 CURVE SMOOTH",
"401 150 OFFCURVE",
"356 123 OFFCURVE",
"326 96 CURVE",
"326 420 LINE",
"331 428 OFFCURVE",
"342 444 OFFCURVE",
"360 460 CURVE SMOOTH",
"384 481 OFFCURVE",
"417 500 OFFCURVE",
"462 500 CURVE SMOOTH",
"508 500 OFFCURVE",
"543 479 OFFCURVE",
"568 458 CURVE SMOOTH",
"580 447 OFFCURVE",
"589 436 OFFCURVE",
"595 427 CURVE SMOOTH",
"597 425 OFFCURVE",
"599 422 OFFCURVE",
"601 420 CURVE",
"601 95 LINE"
);
},
{
closed = 0;
nodes = (
"30 396 LINE",
"51 368 LINE",
"54 364 LINE",
"55 365 OFFCURVE",
"83 385 OFFCURVE",
"139 385 CURVE SMOOTH",
"169 385 OFFCURVE",
"191 379 OFFCURVE",
"206 374 CURVE SMOOTH",
"213 371 OFFCURVE",
"219 368 OFFCURVE",
"222 367 CURVE SMOOTH",
"224 366 OFFCURVE",
"225 365 OFFCURVE",
"226 364 CURVE",
"226 364 OFFCURVE",
"226 364 OFFCURVE",
"226 364 CURVE",
"226 364 OFFCURVE",
"226 364 OFFCURVE",
"226 364 CURVE",
"226 364 LINE",
"233 373 LINE",
"249 396 LINE",
"247 398 OFFCURVE",
"209 424 OFFCURVE",
"139 424 CURVE SMOOTH",
"69 424 OFFCURVE",
"33 398 OFFCURVE",
"30 396 CURVE"
);
},
{
closed = 1;
nodes = (
"55 280 OFFCURVE",
"83 299 OFFCURVE",
"139 299 CURVE SMOOTH",
"169 299 OFFCURVE",
"191 294 OFFCURVE",
"206 288 CURVE SMOOTH",
"213 286 OFFCURVE",
"219 283 OFFCURVE",
"222 281 CURVE SMOOTH",
"224 280 OFFCURVE",
"225 279 OFFCURVE",
"226 279 CURVE SMOOTH",
"226 279 OFFCURVE",
"226 279 OFFCURVE",
"226 279 CURVE",
"226 279 OFFCURVE",
"226 279 OFFCURVE",
"226 279 CURVE",
"232 287 LINE",
"249 311 LINE",
"249 311 LINE",
"247 312 OFFCURVE",
"209 339 OFFCURVE",
"139 339 CURVE SMOOTH",
"69 339 OFFCURVE",
"33 312 OFFCURVE",
"30 310 CURVE",
"54 279 LINE",
"51 283 LINE",
"54 279 LINE"
);
},
{
closed = 0;
nodes = (
"30 225 LINE",
"52 196 LINE",
"51 197 LINE",
"54 193 LINE",
"54 193 LINE",
"56 195 OFFCURVE",
"84 214 OFFCURVE",
"139 214 CURVE SMOOTH",
"169 214 OFFCURVE",
"191 208 OFFCURVE",
"206 203 CURVE SMOOTH",
"213 200 OFFCURVE",
"219 197 OFFCURVE",
"222 196 CURVE SMOOTH",
"224 195 OFFCURVE",
"225 194 OFFCURVE",
"226 194 CURVE SMOOTH",
"226 193 OFFCURVE",
"226 193 OFFCURVE",
"226 193 CURVE",
"226 193 OFFCURVE",
"226 193 OFFCURVE",
"226 193 CURVE",
"226 193 LINE",
"233 202 LINE",
"249 225 LINE",
"247 227 OFFCURVE",
"209 253 OFFCURVE",
"139 253 CURVE SMOOTH",
"69 253 OFFCURVE",
"33 227 OFFCURVE",
"30 225 CURVE"
);
},
{
closed = 0;
nodes = (
"555 364 LINE",
"561 373 LINE",
"555 364 LINE",
"555 364 LINE",
"555 364 OFFCURVE",
"555 364 OFFCURVE",
"555 364 CURVE"
);
},
{
closed = 1;
nodes = (
"382 364 LINE",
"382 364 LINE",
"384 365 OFFCURVE",
"412 385 OFFCURVE",
"468 385 CURVE SMOOTH",
"498 385 OFFCURVE",
"520 379 OFFCURVE",
"534 374 CURVE SMOOTH",
"542 371 OFFCURVE",
"547 368 OFFCURVE",
"550 367 CURVE SMOOTH",
"552 366 OFFCURVE",
"553 365 OFFCURVE",
"554 364 CURVE",
"554 364 OFFCURVE",
"554 364 OFFCURVE",
"555 364 CURVE",
"578 396 LINE",
"576 398 OFFCURVE",
"538 424 OFFCURVE",
"468 424 CURVE SMOOTH",
"398 424 OFFCURVE",
"361 398 OFFCURVE",
"359 396 CURVE",
"383 364 LINE",
"380 368 LINE"
);
},
{
closed = 1;
nodes = (
"384 280 OFFCURVE",
"412 299 OFFCURVE",
"468 299 CURVE SMOOTH",
"498 299 OFFCURVE",
"520 294 OFFCURVE",
"534 288 CURVE SMOOTH",
"542 286 OFFCURVE",
"547 283 OFFCURVE",
"550 281 CURVE SMOOTH",
"552 280 OFFCURVE",
"553 279 OFFCURVE",
"554 279 CURVE",
"554 279 OFFCURVE",
"555 279 OFFCURVE",
"555 279 CURVE",
"555 279 OFFCURVE",
"555 279 OFFCURVE",
"555 279 CURVE",
"561 287 LINE",
"578 311 LINE",
"578 311 LINE",
"576 312 OFFCURVE",
"538 339 OFFCURVE",
"468 339 CURVE SMOOTH",
"398 339 OFFCURVE",
"361 312 OFFCURVE",
"359 310 CURVE",
"383 279 LINE",
"380 283 LINE",
"382 279 LINE"
);
},
{
closed = 0;
nodes = (
"359 225 LINE",
"380 197 LINE",
"382 193 LINE",
"382 193 OFFCURVE",
"383 193 OFFCURVE",
"383 193 CURVE",
"385 195 OFFCURVE",
"413 214 OFFCURVE",
"468 214 CURVE SMOOTH",
"498 214 OFFCURVE",
"520 208 OFFCURVE",
"534 203 CURVE SMOOTH",
"542 200 OFFCURVE",
"547 197 OFFCURVE",
"550 196 CURVE SMOOTH",
"552 195 OFFCURVE",
"553 194 OFFCURVE",
"554 194 CURVE SMOOTH",
"554 193 OFFCURVE",
"555 193 OFFCURVE",
"555 193 CURVE",
"555 193 OFFCURVE",
"555 193 OFFCURVE",
"555 193 CURVE",
"555 193 LINE",
"561 202 LINE",
"578 225 LINE",
"576 227 OFFCURVE",
"538 253 OFFCURVE",
"468 253 CURVE SMOOTH",
"398 253 OFFCURVE",
"361 227 OFFCURVE",
"359 225 CURVE"
);
}
);
width = 600;
}
);
unicode = F051;
},
{
glyphname = unif052;
lastChange = "2012-05-08 14:13:21 +0000";
layers = (
{
layerId = "5DF6A5AF-1C8C-47E3-A702-CFF98FD4A394";
name = Regular;
paths = (
{
closed = 0;
nodes = (
"300 0 LINE",
"213 0 OFFCURVE",
"126 33 OFFCURVE",
"59 100 CURVE SMOOTH",
"-7 166 OFFCURVE",
"-40 253 OFFCURVE",
"-40 340 CURVE",
"-40 427 OFFCURVE",
"-7 514 OFFCURVE",
"59 581 CURVE SMOOTH",
"80 601 OFFCURVE",
"112 601 OFFCURVE",
"133 581 CURVE SMOOTH",
"153 561 OFFCURVE",
"153 528 OFFCURVE",
"133 508 CURVE SMOOTH",
"86 461 OFFCURVE",
"63 401 OFFCURVE",
"63 340 CURVE SMOOTH",
"63 279 OFFCURVE",
"86 219 OFFCURVE",
"133 173 CURVE SMOOTH",
"179 126 OFFCURVE",
"239 104 OFFCURVE",
"300 103 CURVE SMOOTH",
"361 104 OFFCURVE",
"421 126 OFFCURVE",
"467 173 CURVE SMOOTH",
"514 219 OFFCURVE",
"537 279 OFFCURVE",
"537 340 CURVE",
"537 401 OFFCURVE",
"514 461 OFFCURVE",
"467 508 CURVE",
"467 508 LINE",
"447 528 OFFCURVE",
"447 561 OFFCURVE",
"467 581 CURVE SMOOTH",
"488 601 OFFCURVE",
"520 601 OFFCURVE",
"541 581 CURVE SMOOTH",
"607 514 OFFCURVE",
"640 427 OFFCURVE",
"640 340 CURVE SMOOTH",
"640 253 OFFCURVE",
"607 166 OFFCURVE",
"541 100 CURVE SMOOTH",
"474 33 OFFCURVE",
"387 0 OFFCURVE",
"300 0 CURVE SMOOTH",
"300 0 LINE"
);
},
{
closed = 0;
nodes = (
"248 340 LINE",
"248 652 LINE SMOOTH",
"248 681 OFFCURVE",
"271 704 OFFCURVE",
"300 704 CURVE SMOOTH",
"329 704 OFFCURVE",
"352 681 OFFCURVE",
"352 652 CURVE SMOOTH",
"352 340 LINE SMOOTH",
"352 312 OFFCURVE",
"329 288 OFFCURVE",
"300 288 CURVE SMOOTH",
"271 288 OFFCURVE",
"248 312 OFFCURVE",
"248 340 CURVE"
);
}
);
width = 600;
}
);
unicode = F052;
},
{
glyphname = unif053;
lastChange = "2012-05-10 09:00:05 +0000";
layers = (
{
layerId = "5DF6A5AF-1C8C-47E3-A702-CFF98FD4A394";
name = Regular;
paths = (
{
closed = 1;
nodes = (
"106 704 OFFCURVE",
"-52 546 OFFCURVE",
"-52 352 CURVE SMOOTH",
"-52 158 OFFCURVE",
"106 0 OFFCURVE",
"300 0 CURVE SMOOTH",
"494 0 OFFCURVE",
"652 158 OFFCURVE",
"652 352 CURVE SMOOTH",
"652 546 OFFCURVE",
"494 704 OFFCURVE",
"300 704 CURVE SMOOTH"
);
},
{
closed = 1;
nodes = (
"239 591 OFFCURVE",
"267 618 OFFCURVE",
"300 618 CURVE SMOOTH",
"333 618 OFFCURVE",
"361 591 OFFCURVE",
"361 557 CURVE SMOOTH",
"361 325 LINE SMOOTH",
"361 292 OFFCURVE",
"333 264 OFFCURVE",
"300 264 CURVE SMOOTH",
"267 264 OFFCURVE",
"239 292 OFFCURVE",
"239 325 CURVE SMOOTH",
"239 557 LINE SMOOTH"
);
},
{
closed = 1;
nodes = (
"263 86 OFFCURVE",
"232 116 OFFCURVE",
"232 154 CURVE SMOOTH",
"232 191 OFFCURVE",
"263 221 OFFCURVE",
"300 221 CURVE SMOOTH",
"337 221 OFFCURVE",
"368 191 OFFCURVE",
"368 154 CURVE SMOOTH",
"368 116 OFFCURVE",
"337 86 OFFCURVE",
"300 86 CURVE SMOOTH"
);
}
);
width = 600;
}
);
unicode = F053;
},
{
glyphname = unif054;
lastChange = "2012-05-10 08:59:33 +0000";
layers = (
{
layerId = "5DF6A5AF-1C8C-47E3-A702-CFF98FD4A394";
name = Regular;
paths = (
{
closed = 1;
nodes = (
"300 484 LINE",
"80 704 LINE",
"-52 572 LINE",
"168 352 LINE",
"-52 132 LINE",
"80 0 LINE",
"300 220 LINE",
"520 0 LINE",
"652 132 LINE",
"432 352 LINE",
"652 572 LINE",
"520 704 LINE"
);
}
);
width = 600;
}
);
unicode = F054;
},
{
glyphname = unif055;
lastChange = "2012-05-10 09:00:26 +0000";
layers = (
{
layerId = "5DF6A5AF-1C8C-47E3-A702-CFF98FD4A394";
name = Regular;
paths = (
{
closed = 1;
nodes = (
"381 433 LINE",
"381 704 LINE",
"219 704 LINE",
"219 433 LINE",
"-52 433 LINE",
"-52 271 LINE",
"219 271 LINE",
"219 0 LINE",
"381 0 LINE",
"381 271 LINE",
"652 271 LINE",
"652 433 LINE"
);
}
);
width = 600;
}
);
unicode = F055;
},
{
glyphname = unif056;
lastChange = "2012-05-10 09:00:34 +0000";
layers = (
{
layerId = "5DF6A5AF-1C8C-47E3-A702-CFF98FD4A394";
name = Regular;
paths = (
{
closed = 1;
nodes = (
"241 0 LINE",
"-81 286 LINE",
"-38 352 LINE",
"226 271 LINE",
"615 704 LINE",
"681 704 LINE"
);
}
);
width = 600;
}
);
unicode = F056;
},
{
glyphname = unif057;
lastChange = "2012-05-10 09:00:41 +0000";
layers = (
{
layerId = "5DF6A5AF-1C8C-47E3-A702-CFF98FD4A394";
name = Regular;
paths = (
{
closed = 1;
nodes = (
"-52 418 LINE",
"-52 277 LINE",
"652 277 LINE",
"652 418 LINE"
);
}
);
width = 600;
}
);
unicode = F057;
},
{
glyphname = unif058;
lastChange = "2012-05-10 09:00:48 +0000";
layers = (
{
layerId = "5DF6A5AF-1C8C-47E3-A702-CFF98FD4A394";
name = Regular;
paths = (
{
closed = 1;
nodes = (
"300 302 LINE",
"65 537 LINE",
"-52 419 LINE",
"300 67 LINE",
"652 419 LINE",
"534 537 LINE"
);
}
);
width = 600;
}
);
unicode = F058;
},
{
glyphname = unif059;
lastChange = "2012-05-10 09:00:57 +0000";
layers = (
{
layerId = "5DF6A5AF-1C8C-47E3-A702-CFF98FD4A394";
name = Regular;
paths = (
{
closed = 1;
nodes = (
"300 327 LINE",
"534 93 LINE",
"652 210 LINE",
"300 562 LINE",
"-52 210 LINE",
"65 93 LINE"
);
}
);
width = 600;
}
);
unicode = F059;
},
{
glyphname = unif05a;
lastChange = "2012-05-10 09:01:04 +0000";
layers = (
{
layerId = "5DF6A5AF-1C8C-47E3-A702-CFF98FD4A394";
name = Regular;
paths = (
{
closed = 1;
nodes = (
"300 352 LINE",
"65 117 LINE",
"183 0 LINE",
"535 352 LINE",
"183 704 LINE",
"65 586 LINE"
);
}
);
width = 600;
}
);
unicode = F05A;
},
{
glyphname = unif05b;
lastChange = "2012-05-10 09:01:27 +0000";
layers = (
{
layerId = "5DF6A5AF-1C8C-47E3-A702-CFF98FD4A394";
name = Regular;
paths = (
{
closed = 1;
nodes = (
"301 352 LINE",
"535 587 LINE",
"418 704 LINE",
"66 352 LINE",
"418 0 LINE",
"535 117 LINE"
);
}
);
width = 600;
}
);
unicode = F05B;
},
{
glyphname = unif05c;
lastChange = "2012-05-10 09:01:34 +0000";
layers = (
{
layerId = "5DF6A5AF-1C8C-47E3-A702-CFF98FD4A394";
name = Regular;
paths = (
{
closed = 1;
nodes = (
"300 148 LINE",
"652 500 LINE",
"-52 500 LINE"
);
}
);
width = 600;
}
);
unicode = F05C;
},
{
glyphname = unif05d;
lastChange = "2012-05-10 09:01:44 +0000";
layers = (
{
layerId = "5DF6A5AF-1C8C-47E3-A702-CFF98FD4A394";
name = Regular;
paths = (
{
closed = 1;
nodes = (
"300 500 LINE",
"-52 148 LINE",
"652 148 LINE"
);
}
);
width = 600;
}
);
unicode = F05D;
},
{
glyphname = unif05e;
lastChange = "2012-05-10 09:01:50 +0000";
layers = (
{
layerId = "5DF6A5AF-1C8C-47E3-A702-CFF98FD4A394";
name = Regular;
paths = (
{
closed = 1;
nodes = (
"476 352 LINE",
"124 704 LINE",
"124 0 LINE"
);
}
);
width = 600;
}
);
unicode = F05E;
},
{
glyphname = unif060;
lastChange = "2012-05-10 09:01:57 +0000";
layers = (
{
layerId = "5DF6A5AF-1C8C-47E3-A702-CFF98FD4A394";
name = Regular;
paths = (
{
closed = 1;
nodes = (
"124 352 LINE",
"476 0 LINE",
"476 704 LINE"
);
}
);
width = 600;
}
);
unicode = F060;
},
{
glyphname = unif061;
lastChange = "2012-05-10 09:02:05 +0000";
layers = (
{
layerId = "5DF6A5AF-1C8C-47E3-A702-CFF98FD4A394";
name = Regular;
paths = (
{
closed = 1;
nodes = (
"520 264 OFFCURVE",
"476 264 OFFCURVE",
"476 264 CURVE",
"411 316 LINE",
"378 316 LINE",
"369 352 LINE",
"379 367 OFFCURVE",
"403 403 OFFCURVE",
"410 422 CURVE",
"423 419 OFFCURVE",
"440 423 OFFCURVE",
"438 467 CURVE",
"467 538 OFFCURVE",
"441 547 OFFCURVE",
"425 547 CURVE",
"423 637 OFFCURVE",
"405 704 OFFCURVE",
"300 704 CURVE SMOOTH",
"195 704 OFFCURVE",
"177 637 OFFCURVE",
"175 547 CURVE",
"160 548 OFFCURVE",
"130 541 OFFCURVE",
"161 467 CURVE",
"158 422 OFFCURVE",
"177 419 OFFCURVE",
"189 422 CURVE",
"196 402 OFFCURVE",
"221 368 OFFCURVE",
"232 352 CURVE",
"222 316 LINE",
"187 316 LINE",
"124 264 LINE",
"124 264 OFFCURVE",
"80 264 OFFCURVE",
"36 220 CURVE SMOOTH",
"-8 176 OFFCURVE",
"-52 0 OFFCURVE",
"-52 0 CURVE",
"652 0 LINE",
"652 0 OFFCURVE",
"608 176 OFFCURVE",
"564 220 CURVE SMOOTH"
);
}
);
width = 600;
}
);
unicode = F061;
},
{
glyphname = unif062;
lastChange = "2012-05-10 09:02:12 +0000";
layers = (
{
layerId = "5DF6A5AF-1C8C-47E3-A702-CFF98FD4A394";
name = Regular;
paths = (
{
closed = 1;
nodes = (
"443 288 LINE",
"468 330 OFFCURVE",
"483 378 OFFCURVE",
"483 431 CURVE SMOOTH",
"483 582 OFFCURVE",
"361 704 OFFCURVE",
"209 704 CURVE SMOOTH",
"58 704 OFFCURVE",
"-65 582 OFFCURVE",
"-65 431 CURVE SMOOTH",
"-65 279 OFFCURVE",
"58 157 OFFCURVE",
"209 157 CURVE SMOOTH",
"262 157 OFFCURVE",
"310 172 OFFCURVE",
"352 197 CURVE",
"529 20 LINE",
"529 20 OFFCURVE",
"574 -25 OFFCURVE",
"620 20 CURVE SMOOTH",
"665 66 OFFCURVE",
"620 111 OFFCURVE",
"620 111 CURVE"
);
},
{
closed = 1;
nodes = (
"27 531 OFFCURVE",
"109 613 OFFCURVE",
"209 613 CURVE SMOOTH",
"310 613 OFFCURVE",
"392 531 OFFCURVE",
"392 431 CURVE SMOOTH",
"392 330 OFFCURVE",
"310 248 OFFCURVE",
"209 248 CURVE SMOOTH",
"109 248 OFFCURVE",
"27 330 OFFCURVE",
"27 431 CURVE SMOOTH"
);
}
);
width = 600;
}
);
unicode = F062;
},
{
glyphname = unif063;
lastChange = "2012-05-10 09:02:18 +0000";
layers = (
{
layerId = "5DF6A5AF-1C8C-47E3-A702-CFF98FD4A394";
name = Regular;
paths = (
{
closed = 1;
nodes = (
"-52 176 LINE",
"344 176 LINE",
"520 0 LINE",
"520 176 LINE",
"652 176 LINE",
"652 704 LINE",
"-52 704 LINE"
);
},
{
closed = 1;
nodes = (
"80 352 LINE",
"80 396 LINE",
"520 396 LINE",
"520 352 LINE"
);
},
{
closed = 1;
nodes = (
"80 484 LINE",
"80 528 LINE",
"520 528 LINE",
"520 484 LINE"
);
}
);
width = 600;
}
);
unicode = F063;
},
{
glyphname = unif064;
lastChange = "2012-05-10 09:02:25 +0000";
layers = (
{
layerId = "5DF6A5AF-1C8C-47E3-A702-CFF98FD4A394";
name = Regular;
paths = (
{
closed = 1;
nodes = (
"555 418 LINE",
"549 442 OFFCURVE",
"540 465 OFFCURVE",
"527 486 CURVE",
"580 539 LINE SMOOTH",
"589 547 OFFCURVE",
"589 561 OFFCURVE",
"580 570 CURVE SMOOTH",
"518 632 LINE SMOOTH",
"509 641 OFFCURVE",
"495 641 OFFCURVE",
"487 632 CURVE SMOOTH",
"434 579 LINE",
"413 592 OFFCURVE",
"390 601 OFFCURVE",
"366 607 CURVE",
"366 682 LINE SMOOTH",
"366 694 OFFCURVE",
"356 704 OFFCURVE",
"344 704 CURVE SMOOTH",
"256 704 LINE SMOOTH",
"244 704 OFFCURVE",
"234 694 OFFCURVE",
"234 682 CURVE SMOOTH",
"234 607 LINE",
"210 601 OFFCURVE",
"187 592 OFFCURVE",
"166 579 CURVE",
"113 632 LINE SMOOTH",
"105 641 OFFCURVE",
"91 641 OFFCURVE",
"82 632 CURVE SMOOTH",
"20 570 LINE SMOOTH",
"11 561 OFFCURVE",
"11 547 OFFCURVE",
"20 539 CURVE SMOOTH",
"73 486 LINE",
"60 465 OFFCURVE",
"51 442 OFFCURVE",
"45 418 CURVE",
"-30 418 LINE SMOOTH",
"-42 418 OFFCURVE",
"-52 408 OFFCURVE",
"-52 396 CURVE SMOOTH",
"-52 308 LINE SMOOTH",
"-52 296 OFFCURVE",
"-42 286 OFFCURVE",
"-30 286 CURVE SMOOTH",
"45 286 LINE",
"51 262 OFFCURVE",
"60 239 OFFCURVE",
"73 218 CURVE",
"20 165 LINE SMOOTH",
"11 157 OFFCURVE",
"11 143 OFFCURVE",
"20 134 CURVE SMOOTH",
"82 72 LINE SMOOTH",
"91 63 OFFCURVE",
"105 63 OFFCURVE",
"113 72 CURVE SMOOTH",
"166 125 LINE",
"187 112 OFFCURVE",
"210 103 OFFCURVE",
"234 97 CURVE",
"234 22 LINE SMOOTH",
"234 10 OFFCURVE",
"244 0 OFFCURVE",
"256 0 CURVE SMOOTH",
"344 0 LINE SMOOTH",
"356 0 OFFCURVE",
"366 10 OFFCURVE",
"366 22 CURVE SMOOTH",
"366 97 LINE",
"390 103 OFFCURVE",
"413 112 OFFCURVE",
"434 125 CURVE",
"487 72 LINE SMOOTH",
"495 63 OFFCURVE",
"509 63 OFFCURVE",
"518 72 CURVE SMOOTH",
"580 134 LINE SMOOTH",
"589 143 OFFCURVE",
"589 157 OFFCURVE",
"580 165 CURVE SMOOTH",
"527 218 LINE",
"540 239 OFFCURVE",
"549 262 OFFCURVE",
"555 286 CURVE",
"630 286 LINE SMOOTH",
"642 286 OFFCURVE",
"652 296 OFFCURVE",
"652 308 CURVE SMOOTH",
"652 396 LINE SMOOTH",
"652 408 OFFCURVE",
"642 418 OFFCURVE",
"630 418 CURVE SMOOTH"
);
},
{
closed = 1;
nodes = (
"227 220 OFFCURVE",
"168 279 OFFCURVE",
"168 352 CURVE SMOOTH",
"168 425 OFFCURVE",
"227 484 OFFCURVE",
"300 484 CURVE SMOOTH",
"373 484 OFFCURVE",
"432 425 OFFCURVE",
"432 352 CURVE SMOOTH",
"432 279 OFFCURVE",
"373 220 OFFCURVE",
"300 220 CURVE SMOOTH"
);
}
);
width = 600;
}
);
unicode = F064;
},
{
glyphname = unif065;
lastChange = "2012-05-10 09:02:32 +0000";
layers = (
{
layerId = "5DF6A5AF-1C8C-47E3-A702-CFF98FD4A394";
name = Regular;
paths = (
{
closed = 1;
nodes = (
"652 528 LINE",
"212 88 LINE",
"36 264 LINE",
"476 704 LINE"
);
},
{
closed = 1;
nodes = (
"-8 220 LINE",
"168 44 LINE",
"-52 0 LINE"
);
}
);
width = 600;
}
);
unicode = F065;
},
{
glyphname = unif066;
lastChange = "2012-05-10 09:02:48 +0000";
layers = (
{
layerId = "5DF6A5AF-1C8C-47E3-A702-CFF98FD4A394";
name = Regular;
paths = (
{
closed = 1;
nodes = (
"-52 484 LINE",
"300 220 LINE",
"652 484 LINE"
);
},
{
closed = 1;
nodes = (
"-52 0 LINE",
"652 0 LINE",
"652 396 LINE",
"300 132 LINE",
"-52 396 LINE"
);
}
);
width = 600;
}
);
unicode = F066;
},
{
glyphname = unif067;
lastChange = "2012-05-10 09:02:55 +0000";
layers = (
{
layerId = "5DF6A5AF-1C8C-47E3-A702-CFF98FD4A394";
name = Regular;
paths = (
{
closed = 1;
nodes = (
"-52 0 LINE",
"652 0 LINE",
"652 396 LINE",
"300 132 LINE",
"-52 396 LINE"
);
},
{
closed = 1;
nodes = (
"-52 484 LINE",
"300 220 LINE",
"652 484 LINE",
"300 704 LINE"
);
}
);
width = 600;
}
);
unicode = F067;
},
{
glyphname = unif068;
lastChange = "2012-05-10 09:03:01 +0000";
layers = (
{
layerId = "5DF6A5AF-1C8C-47E3-A702-CFF98FD4A394";
name = Regular;
paths = (
{
closed = 1;
nodes = (
"344 88 LINE",
"344 616 LINE",
"520 616 LINE",
"520 88 LINE"
);
},
{
closed = 1;
nodes = (
"80 88 LINE",
"300 0 LINE",
"300 704 LINE",
"80 616 LINE"
);
},
{
closed = 1;
nodes = (
"222 308 OFFCURVE",
"212 328 OFFCURVE",
"212 352 CURVE SMOOTH",
"212 376 OFFCURVE",
"222 396 OFFCURVE",
"234 396 CURVE SMOOTH",
"246 396 OFFCURVE",
"256 376 OFFCURVE",
"256 352 CURVE SMOOTH",
"256 328 OFFCURVE",
"246 308 OFFCURVE",
"234 308 CURVE SMOOTH"
);
}
);
width = 600;
}
);
unicode = F068;
},
{
glyphname = unif069;
lastChange = "2012-05-10 09:03:18 +0000";
layers = (
{
layerId = "5DF6A5AF-1C8C-47E3-A702-CFF98FD4A394";
name = Regular;
paths = (
{
closed = 1;
nodes = (
"465 747 OFFCURVE",
"300 550 OFFCURVE",
"300 550 CURVE SMOOTH",
"300 550 OFFCURVE",
"135 747 OFFCURVE",
"-34 601 CURVE SMOOTH",
"-257 407 OFFCURVE",
"300 0 OFFCURVE",
"300 0 CURVE SMOOTH",
"300 0 OFFCURVE",
"857 407 OFFCURVE",
"634 601 CURVE SMOOTH"
);
}
);
width = 600;
}
);
unicode = F069;
},
{
glyphname = unif06a;
lastChange = "2012-05-10 09:05:05 +0000";
layers = (
{
layerId = "5DF6A5AF-1C8C-47E3-A702-CFF98FD4A394";
name = Regular;
paths = (
{
closed = 1;
nodes = (
"213 664 OFFCURVE",
"-52 400 OFFCURVE",
"-52 269 CURVE SMOOTH",
"-52 137 OFFCURVE",
"-8 49 OFFCURVE",
"37 5 CURVE SMOOTH",
"80 -39 OFFCURVE",
"256 137 OFFCURVE",
"213 181 CURVE SMOOTH",
"168 225 OFFCURVE",
"80 225 OFFCURVE",
"80 269 CURVE SMOOTH",
"80 312 OFFCURVE",
"301 533 OFFCURVE",
"344 533 CURVE SMOOTH",
"388 533 OFFCURVE",
"388 445 OFFCURVE",
"432 400 CURVE SMOOTH",
"476 357 OFFCURVE",
"652 533 OFFCURVE",
"608 576 CURVE SMOOTH",
"564 621 OFFCURVE",
"476 664 OFFCURVE",
"344 664 CURVE SMOOTH"
);
}
);
width = 600;
}
);
unicode = F06A;
},
{
glyphname = unif06b;
lastChange = "2012-05-10 09:04:24 +0000";
layers = (
{
layerId = "5DF6A5AF-1C8C-47E3-A702-CFF98FD4A394";
name = Regular;
paths = (
{
closed = 1;
nodes = (
"218 345 OFFCURVE",
"174 375 OFFCURVE",
"124 396 CURVE SMOOTH",
"73 417 OFFCURVE",
"18 428 OFFCURVE",
"-38 428 CURVE SMOOTH",
"-44 428 OFFCURVE",
"-49 423 OFFCURVE",
"-49 417 CURVE SMOOTH",
"-49 280 LINE SMOOTH",
"-49 274 OFFCURVE",
"-44 269 OFFCURVE",
"-38 269 CURVE SMOOTH",
"104 269 OFFCURVE",
"219 154 OFFCURVE",
"219 12 CURVE SMOOTH",
"219 5 OFFCURVE",
"224 0 OFFCURVE",
"230 0 CURVE SMOOTH",
"367 0 LINE SMOOTH",
"374 0 OFFCURVE",
"379 5 OFFCURVE",
"379 12 CURVE SMOOTH",
"379 68 OFFCURVE",
"368 123 OFFCURVE",
"346 174 CURVE SMOOTH",
"325 224 OFFCURVE",
"295 268 OFFCURVE",
"257 306 CURVE SMOOTH"
);
},
{
closed = 1;
nodes = (
"563 357 OFFCURVE",
"513 431 OFFCURVE",
"450 494 CURVE SMOOTH",
"387 557 OFFCURVE",
"313 607 OFFCURVE",
"231 642 CURVE SMOOTH",
"146 678 OFFCURVE",
"55 696 OFFCURVE",
"-38 696 CURVE SMOOTH",
"-44 696 OFFCURVE",
"-49 691 OFFCURVE",
"-49 685 CURVE SMOOTH",
"-49 548 LINE SMOOTH",
"-49 542 OFFCURVE",
"-44 537 OFFCURVE",
"-38 537 CURVE SMOOTH",
"252 537 OFFCURVE",
"490 301 OFFCURVE",
"492 11 CURVE SMOOTH",
"492 5 OFFCURVE",
"498 0 OFFCURVE",
"504 0 CURVE SMOOTH",
"641 0 LINE SMOOTH",
"644 0 OFFCURVE",
"647 1 OFFCURVE",
"649 3 CURVE SMOOTH",
"651 6 OFFCURVE",
"652 8 OFFCURVE",
"652 11 CURVE SMOOTH",
"651 103 OFFCURVE",
"633 191 OFFCURVE",
"598 275 CURVE SMOOTH"
);
},
{
closed = 1;
nodes = (
"103 35 OFFCURVE",
"68 0 OFFCURVE",
"26 0 CURVE SMOOTH",
"-17 0 OFFCURVE",
"-52 35 OFFCURVE",
"-52 78 CURVE SMOOTH",
"-52 121 OFFCURVE",
"-17 156 OFFCURVE",
"26 156 CURVE SMOOTH",
"68 156 OFFCURVE",
"103 121 OFFCURVE",
"103 78 CURVE SMOOTH"
);
}
);
width = 600;
}
);
unicode = F06B;
},
{
glyphname = unif06c;
lastChange = "2012-05-10 09:05:20 +0000";
layers = (
{
layerId = "5DF6A5AF-1C8C-47E3-A702-CFF98FD4A394";
name = Regular;
paths = (
{
closed = 1;
nodes = (
"205 193 OFFCURVE",
"193 207 OFFCURVE",
"184 223 CURVE SMOOTH",
"176 239 OFFCURVE",
"170 255 OFFCURVE",
"168 273 CURVE SMOOTH",
"167 277 OFFCURVE",
"167 281 OFFCURVE",
"167 285 CURVE",
"86 347 LINE SMOOTH",
"58 369 OFFCURVE",
"53 409 OFFCURVE",
"75 437 CURVE SMOOTH",
"106 477 LINE SMOOTH",
"128 505 OFFCURVE",
"168 510 OFFCURVE",
"196 489 CURVE SMOOTH",
"277 426 LINE",
"280 426 OFFCURVE",
"284 427 OFFCURVE",
"287 427 CURVE SMOOTH",
"305 430 OFFCURVE",
"323 429 OFFCURVE",
"340 424 CURVE SMOOTH",
"358 419 OFFCURVE",
"375 411 OFFCURVE",
"389 400 CURVE SMOOTH",
"504 310 LINE",
"501 358 OFFCURVE",
"479 404 OFFCURVE",
"439 435 CURVE SMOOTH",
"261 573 LINE SMOOTH",
"187 630 OFFCURVE",
"80 617 OFFCURVE",
"22 543 CURVE SMOOTH",
"-10 502 LINE SMOOTH",
"-68 428 OFFCURVE",
"-54 321 OFFCURVE",
"21 263 CURVE SMOOTH",
"199 125 LINE SMOOTH",
"239 94 OFFCURVE",
"288 84 OFFCURVE",
"335 93 CURVE",
"220 181 LINE SMOOTH"
);
},
{
closed = 1;
nodes = (
"257 238 LINE SMOOTH",
"226 262 OFFCURVE",
"220 307 OFFCURVE",
"244 338 CURVE SMOOTH",
"268 369 OFFCURVE",
"313 375 OFFCURVE",
"344 350 CURVE SMOOTH",
"632 127 LINE SMOOTH",
"663 103 OFFCURVE",
"668 58 OFFCURVE",
"644 27 CURVE SMOOTH",
"620 -4 OFFCURVE",
"575 -9 OFFCURVE",
"544 15 CURVE SMOOTH"
);
}
);
width = 600;
}
);
unicode = F06C;
},
{
glyphname = unif06d;
lastChange = "2012-05-10 09:05:27 +0000";
layers = (
{
layerId = "5DF6A5AF-1C8C-47E3-A702-CFF98FD4A394";
name = Regular;
paths = (
{
closed = 1;
nodes = (
"607 531 OFFCURVE",
"581 569 OFFCURVE",
"549 601 CURVE SMOOTH",
"517 633 OFFCURVE",
"479 659 OFFCURVE",
"437 676 CURVE SMOOTH",
"394 695 OFFCURVE",
"347 704 OFFCURVE",
"300 704 CURVE SMOOTH",
"253 704 OFFCURVE",
"206 695 OFFCURVE",
"163 676 CURVE SMOOTH",
"121 659 OFFCURVE",
"83 633 OFFCURVE",
"51 601 CURVE SMOOTH",
"19 569 OFFCURVE",
"-7 531 OFFCURVE",
"-24 489 CURVE SMOOTH",
"-43 446 OFFCURVE",
"-52 399 OFFCURVE",
"-52 352 CURVE SMOOTH",
"-52 305 OFFCURVE",
"-43 258 OFFCURVE",
"-24 215 CURVE SMOOTH",
"-7 173 OFFCURVE",
"19 135 OFFCURVE",
"51 103 CURVE SMOOTH",
"83 71 OFFCURVE",
"121 45 OFFCURVE",
"163 28 CURVE SMOOTH",
"206 9 OFFCURVE",
"253 0 OFFCURVE",
"300 0 CURVE SMOOTH",
"347 0 OFFCURVE",
"394 9 OFFCURVE",
"437 28 CURVE SMOOTH",
"479 45 OFFCURVE",
"517 71 OFFCURVE",
"549 103 CURVE SMOOTH",
"581 135 OFFCURVE",
"607 173 OFFCURVE",
"624 215 CURVE SMOOTH",
"643 258 OFFCURVE",
"652 305 OFFCURVE",
"652 352 CURVE SMOOTH",
"652 399 OFFCURVE",
"643 446 OFFCURVE",
"624 489 CURVE SMOOTH"
);
},
{
closed = 1;
nodes = (
"337 572 OFFCURVE",
"371 563 OFFCURVE",
"402 547 CURVE",
"107 246 LINE",
"90 278 OFFCURVE",
"80 314 OFFCURVE",
"80 352 CURVE SMOOTH",
"80 473 OFFCURVE",
"179 572 OFFCURVE",
"300 572 CURVE SMOOTH"
);
},
{
closed = 1;
nodes = (
"273 132 OFFCURVE",
"248 137 OFFCURVE",
"224 146 CURVE",
"505 433 LINE",
"514 408 OFFCURVE",
"520 380 OFFCURVE",
"520 352 CURVE SMOOTH",
"520 231 OFFCURVE",
"421 132 OFFCURVE",
"300 132 CURVE SMOOTH"
);
}
);
width = 600;
}
);
unicode = F06D;
},
{
glyphname = unif06e;
lastChange = "2012-05-10 09:05:34 +0000";
layers = (
{
layerId = "5DF6A5AF-1C8C-47E3-A702-CFF98FD4A394";
name = Regular;
paths = (
{
closed = 1;
nodes = (
"142 704 OFFCURVE",
"13 575 OFFCURVE",
"13 417 CURVE SMOOTH",
"13 258 OFFCURVE",
"300 0 OFFCURVE",
"300 0 CURVE SMOOTH",
"300 0 OFFCURVE",
"588 258 OFFCURVE",
"588 417 CURVE SMOOTH",
"588 575 OFFCURVE",
"459 704 OFFCURVE",
"300 704 CURVE SMOOTH"
);
},
{
closed = 1;
nodes = (
"222 278 OFFCURVE",
"158 342 OFFCURVE",
"158 420 CURVE SMOOTH",
"158 499 OFFCURVE",
"222 562 OFFCURVE",
"300 562 CURVE SMOOTH",
"379 562 OFFCURVE",
"442 499 OFFCURVE",
"442 420 CURVE SMOOTH",
"442 342 OFFCURVE",
"379 278 OFFCURVE",
"300 278 CURVE SMOOTH"
);
}
);
width = 600;
}
);
unicode = F06E;
},
{
glyphname = unif070;
lastChange = "2012-05-10 09:05:41 +0000";
layers = (
{
layerId = "5DF6A5AF-1C8C-47E3-A702-CFF98FD4A394";
name = Regular;
paths = (
{
closed = 1;
nodes = (
"506 0 OFFCURVE",
"500 2 OFFCURVE",
"495 5 CURVE SMOOTH",
"300 147 LINE",
"104 5 LINE SMOOTH",
"95 -2 OFFCURVE",
"82 -2 OFFCURVE",
"73 5 CURVE SMOOTH",
"63 12 OFFCURVE",
"59 24 OFFCURVE",
"63 35 CURVE SMOOTH",
"138 265 LINE",
"-58 407 LINE SMOOTH",
"-67 414 OFFCURVE",
"-71 426 OFFCURVE",
"-68 437 CURVE SMOOTH",
"-64 448 OFFCURVE",
"-54 456 OFFCURVE",
"-42 456 CURVE SMOOTH",
"200 456 LINE",
"274 685 LINE SMOOTH",
"278 697 OFFCURVE",
"288 704 OFFCURVE",
"300 704 CURVE SMOOTH",
"311 704 OFFCURVE",
"322 697 OFFCURVE",
"325 685 CURVE SMOOTH",
"400 456 LINE",
"642 456 LINE SMOOTH",
"653 456 OFFCURVE",
"664 448 OFFCURVE",
"667 437 CURVE SMOOTH",
"671 426 OFFCURVE",
"667 414 OFFCURVE",
"657 407 CURVE SMOOTH",
"462 265 LINE",
"537 35 LINE SMOOTH",
"540 24 OFFCURVE",
"536 12 OFFCURVE",
"527 5 CURVE SMOOTH",
"522 2 OFFCURVE",
"517 0 OFFCURVE",
"511 0 CURVE SMOOTH"
);
}
);
width = 600;
}
);
unicode = F070;
},
{
glyphname = unif071;
lastChange = "2012-05-10 09:05:49 +0000";
layers = (
{
layerId = "5DF6A5AF-1C8C-47E3-A702-CFF98FD4A394";
name = Regular;
paths = (
{
closed = 1;
nodes = (
"-12 704 LINE SMOOTH",
"-34 704 OFFCURVE",
"-52 686 OFFCURVE",
"-52 664 CURVE SMOOTH",
"-52 40 LINE SMOOTH",
"-52 18 OFFCURVE",
"-34 0 OFFCURVE",
"-12 0 CURVE SMOOTH",
"612 0 LINE SMOOTH",
"634 0 OFFCURVE",
"652 18 OFFCURVE",
"652 40 CURVE SMOOTH",
"652 664 LINE SMOOTH",
"652 686 OFFCURVE",
"634 704 OFFCURVE",
"612 704 CURVE SMOOTH"
);
},
{
closed = 1;
nodes = (
"449 309 LINE",
"449 50 LINE",
"350 50 LINE",
"350 309 LINE",
"282 309 LINE",
"282 402 LINE",
"350 402 LINE",
"350 402 OFFCURVE",
"350 440 OFFCURVE",
"350 482 CURVE SMOOTH",
"350 544 OFFCURVE",
"391 602 OFFCURVE",
"484 602 CURVE SMOOTH",
"522 602 OFFCURVE",
"549 598 OFFCURVE",
"549 598 CURVE",
"547 511 LINE",
"547 511 OFFCURVE",
"519 512 OFFCURVE",
"488 512 CURVE SMOOTH",
"454 512 OFFCURVE",
"449 496 OFFCURVE",
"449 470 CURVE SMOOTH",
"449 467 OFFCURVE",
"449 466 OFFCURVE",
"449 466 CURVE",
"449 459 OFFCURVE",
"449 441 OFFCURVE",
"449 402 CURVE",
"550 402 LINE",
"546 309 LINE"
);
}
);
width = 600;
}
);
unicode = F071;
},
{
glyphname = unif072;
lastChange = "2012-05-10 09:05:56 +0000";
layers = (
{
layerId = "5DF6A5AF-1C8C-47E3-A702-CFF98FD4A394";
name = Regular;
paths = (
{
closed = 1;
nodes = (
"36 704 LINE SMOOTH",
"-13 704 OFFCURVE",
"-52 665 OFFCURVE",
"-52 616 CURVE SMOOTH",
"-52 88 LINE SMOOTH",
"-52 39 OFFCURVE",
"-13 0 OFFCURVE",
"36 0 CURVE SMOOTH",
"564 0 LINE SMOOTH",
"613 0 OFFCURVE",
"652 39 OFFCURVE",
"652 88 CURVE SMOOTH",
"652 616 LINE SMOOTH",
"652 665 OFFCURVE",
"613 704 OFFCURVE",
"564 704 CURVE SMOOTH"
);
},
{
closed = 1;
nodes = (
"484 160 OFFCURVE",
"171 80 OFFCURVE",
"26 277 CURVE",
"82 224 OFFCURVE",
"178 219 OFFCURVE",
"239 283 CURVE",
"203 277 OFFCURVE",
"177 312 OFFCURVE",
"221 331 CURVE",
"181 327 OFFCURVE",
"159 348 OFFCURVE",
"150 366 CURVE",
"160 376 OFFCURVE",
"170 380 OFFCURVE",
"190 382 CURVE",
"146 392 OFFCURVE",
"130 413 OFFCURVE",
"126 439 CURVE",
"138 442 OFFCURVE",
"153 444 OFFCURVE",
"161 443 CURVE",
"123 463 OFFCURVE",
"110 493 OFFCURVE",
"112 515 CURVE",
"180 490 OFFCURVE",
"223 470 OFFCURVE",
"259 450 CURVE SMOOTH",
"272 443 OFFCURVE",
"286 431 OFFCURVE",
"302 415 CURVE",
"323 470 OFFCURVE",
"348 526 OFFCURVE",
"392 554 CURVE",
"391 548 OFFCURVE",
"388 542 OFFCURVE",
"383 537 CURVE",
"396 548 OFFCURVE",
"412 556 OFFCURVE",
"428 558 CURVE",
"426 546 OFFCURVE",
"409 539 OFFCURVE",
"398 535 CURVE",
"406 538 OFFCURVE",
"449 557 OFFCURVE",
"454 546 CURVE SMOOTH",
"459 533 OFFCURVE",
"424 528 OFFCURVE",
"418 525 CURVE SMOOTH",
"414 524 OFFCURVE",
"409 522 OFFCURVE",
"405 520 CURVE",
"459 526 OFFCURVE",
"511 481 OFFCURVE",
"526 425 CURVE SMOOTH",
"527 421 OFFCURVE",
"528 417 OFFCURVE",
"529 412 CURVE",
"549 405 OFFCURVE",
"585 413 OFFCURVE",
"597 420 CURVE",
"588 400 OFFCURVE",
"567 385 OFFCURVE",
"534 382 CURVE",
"550 376 OFFCURVE",
"579 372 OFFCURVE",
"599 376 CURVE",
"587 362 OFFCURVE",
"566 350 OFFCURVE",
"531 350 CURVE"
);
}
);
width = 600;
}
);
unicode = F072;
},
{
glyphname = unif073;
lastChange = "2012-05-17 13:34:44 +0000";
layers = (
{
layerId = "5DF6A5AF-1C8C-47E3-A702-CFF98FD4A394";
name = Regular;
paths = (
{
closed = 0;
nodes = (
"598 106 LINE",
"569 106 OFFCURVE",
"545 82 OFFCURVE",
"545 53 CURVE SMOOTH",
"545 24 OFFCURVE",
"569 0 OFFCURVE",
"598 0 CURVE SMOOTH",
"627 0 OFFCURVE",
"651 24 OFFCURVE",
"651 53 CURVE SMOOTH",
"651 82 OFFCURVE",
"627 106 OFFCURVE",
"598 106 CURVE"
);
},
{
closed = 0;
nodes = (
"124 106 LINE",
"95 106 OFFCURVE",
"71 82 OFFCURVE",
"71 53 CURVE SMOOTH",
"71 24 OFFCURVE",
"95 0 OFFCURVE",
"124 0 CURVE SMOOTH",
"153 0 OFFCURVE",
"177 24 OFFCURVE",
"177 53 CURVE SMOOTH",
"177 82 OFFCURVE",
"153 106 OFFCURVE",
"124 106 CURVE"
);
},
{
closed = 1;
nodes = (
"651 439 LINE",
"651 614 LINE",
"106 614 LINE",
"76 702 LINE",
"-12 702 LINE SMOOTH",
"-33 702 OFFCURVE",
"-51 680 OFFCURVE",
"-51 658 CURVE SMOOTH",
"-51 637 OFFCURVE",
"-33 614 OFFCURVE",
"-12 614 CURVE SMOOTH",
"21 614 LINE",
"127 307 LINE",
"70 132 LINE",
"612 132 LINE SMOOTH",
"633 132 OFFCURVE",
"651 154 OFFCURVE",
"651 176 CURVE SMOOTH",
"651 197 OFFCURVE",
"633 219 OFFCURVE",
"612 219 CURVE SMOOTH",
"178 219 LINE",
"208 307 LINE",
"519 307 LINE"
);
}
);
width = 600;
}
);
unicode = F073;
},
{
glyphname = unif074;
lastChange = "2012-05-28 14:34:14 +0000";
layers = (
{
layerId = "5DF6A5AF-1C8C-47E3-A702-CFF98FD4A394";
name = Regular;
paths = (
{
closed = 1;
nodes = (
"510 99 OFFCURVE",
"125 0 OFFCURVE",
"-52 242 CURVE",
"15 177 OFFCURVE",
"134 171 OFFCURVE",
"209 249 CURVE",
"165 243 OFFCURVE",
"133 286 OFFCURVE",
"187 309 CURVE",
"138 304 OFFCURVE",
"111 330 OFFCURVE",
"100 352 CURVE",
"111 363 OFFCURVE",
"124 369 OFFCURVE",
"148 371 CURVE",
"95 383 OFFCURVE",
"76 409 OFFCURVE",
"70 441 CURVE",
"84 444 OFFCURVE",
"103 447 OFFCURVE",
"113 446 CURVE",
"66 470 OFFCURVE",
"50 507 OFFCURVE",
"53 535 CURVE",
"136 504 OFFCURVE",
"189 479 OFFCURVE",
"233 455 CURVE SMOOTH",
"249 447 OFFCURVE",
"267 431 OFFCURVE",
"287 412 CURVE",
"312 479 OFFCURVE",
"343 548 OFFCURVE",
"397 582 CURVE",
"396 575 OFFCURVE",
"392 567 OFFCURVE",
"386 561 CURVE",
"401 575 OFFCURVE",
"421 585 OFFCURVE",
"441 588 CURVE",
"439 572 OFFCURVE",
"417 564 OFFCURVE",
"404 559 CURVE",
"414 562 OFFCURVE",
"467 586 OFFCURVE",
"472 572 CURVE SMOOTH",
"479 557 OFFCURVE",
"436 550 OFFCURVE",
"429 547 CURVE SMOOTH",
"423 545 OFFCURVE",
"418 544 OFFCURVE",
"412 541 CURVE",
"479 548 OFFCURVE",
"543 493 OFFCURVE",
"562 424 CURVE SMOOTH",
"563 419 OFFCURVE",
"564 414 OFFCURVE",
"566 408 CURVE",
"590 399 OFFCURVE",
"634 409 OFFCURVE",
"649 417 CURVE",
"638 393 OFFCURVE",
"611 375 OFFCURVE",
"572 372 CURVE",
"591 364 OFFCURVE",
"627 359 OFFCURVE",
"652 364 CURVE",
"636 347 OFFCURVE",
"611 332 OFFCURVE",
"568 332 CURVE"
);
}
);
width = 600;
}
);
unicode = F074;
},
{
glyphname = unif075;
lastChange = "2012-05-29 09:57:18 +0000";
layers = (
{
layerId = "5DF6A5AF-1C8C-47E3-A702-CFF98FD4A394";
name = Regular;
paths = (
{
closed = 1;
nodes = (
"442 288 LINE",
"467 330 OFFCURVE",
"482 378 OFFCURVE",
"482 431 CURVE SMOOTH",
"482 582 OFFCURVE",
"360 704 OFFCURVE",
"209 704 CURVE SMOOTH",
"58 704 OFFCURVE",
"-65 582 OFFCURVE",
"-65 431 CURVE SMOOTH",
"-65 280 OFFCURVE",
"58 157 OFFCURVE",
"209 157 CURVE SMOOTH",
"261 157 OFFCURVE",
"310 172 OFFCURVE",
"351 197 CURVE",
"528 20 LINE",
"528 20 OFFCURVE",
"574 -25 OFFCURVE",
"619 20 CURVE SMOOTH",
"665 66 OFFCURVE",
"619 111 OFFCURVE",
"619 111 CURVE"
);
},
{
closed = 1;
nodes = (
"108 248 OFFCURVE",
"27 330 OFFCURVE",
"27 431 CURVE SMOOTH",
"27 531 OFFCURVE",
"108 613 OFFCURVE",
"209 613 CURVE SMOOTH",
"310 613 OFFCURVE",
"391 531 OFFCURVE",
"391 431 CURVE SMOOTH",
"391 330 OFFCURVE",
"310 248 OFFCURVE",
"209 248 CURVE SMOOTH"
);
},
{
closed = 1;
nodes = (
"178 522 LINE",
"178 461 LINE",
"118 461 LINE",
"118 400 LINE",
"178 400 LINE",
"178 339 LINE",
"239 339 LINE",
"239 400 LINE",
"300 400 LINE",
"300 461 LINE",
"239 461 LINE",
"239 522 LINE"
);
}
);
width = 600;
}
);
unicode = F075;
},
{
glyphname = unif076;
lastChange = "2012-05-29 10:18:07 +0000";
layers = (
{
layerId = "5DF6A5AF-1C8C-47E3-A702-CFF98FD4A394";
name = Regular;
paths = (
{
closed = 1;
nodes = (
"442 288 LINE",
"467 330 OFFCURVE",
"482 378 OFFCURVE",
"482 431 CURVE SMOOTH",
"482 582 OFFCURVE",
"360 704 OFFCURVE",
"209 704 CURVE SMOOTH",
"58 704 OFFCURVE",
"-65 582 OFFCURVE",
"-65 431 CURVE SMOOTH",
"-65 279 OFFCURVE",
"58 157 OFFCURVE",
"209 157 CURVE SMOOTH",
"261 157 OFFCURVE",
"310 172 OFFCURVE",
"351 197 CURVE",
"528 20 LINE",
"528 20 OFFCURVE",
"574 -25 OFFCURVE",
"619 20 CURVE SMOOTH",
"665 66 OFFCURVE",
"619 111 OFFCURVE",
"619 111 CURVE"
);
},
{
closed = 1;
nodes = (
"27 531 OFFCURVE",
"108 613 OFFCURVE",
"209 613 CURVE SMOOTH",
"310 613 OFFCURVE",
"391 531 OFFCURVE",
"391 431 CURVE SMOOTH",
"391 330 OFFCURVE",
"310 248 OFFCURVE",
"209 248 CURVE SMOOTH",
"108 248 OFFCURVE",
"27 330 OFFCURVE",
"27 431 CURVE SMOOTH"
);
},
{
closed = 1;
nodes = (
"118 400 LINE",
"118 461 LINE",
"300 461 LINE",
"300 400 LINE"
);
}
);
width = 600;
}
);
unicode = F076;
},
{
glyphname = unif077;
lastChange = "2012-05-29 10:18:24 +0000";
layers = (
{
layerId = "5DF6A5AF-1C8C-47E3-A702-CFF98FD4A394";
name = Regular;
paths = (
{
closed = 1;
nodes = (
"36 704 LINE SMOOTH",
"-13 704 OFFCURVE",
"-52 665 OFFCURVE",
"-52 616 CURVE SMOOTH",
"-52 88 LINE SMOOTH",
"-52 39 OFFCURVE",
"-13 0 OFFCURVE",
"36 0 CURVE SMOOTH",
"564 0 LINE SMOOTH",
"613 0 OFFCURVE",
"652 39 OFFCURVE",
"652 88 CURVE SMOOTH",
"652 616 LINE SMOOTH",
"652 665 OFFCURVE",
"613 704 OFFCURVE",
"564 704 CURVE SMOOTH"
);
},
{
closed = 1;
nodes = (
"56 132 OFFCURVE",
"36 152 OFFCURVE",
"36 176 CURVE SMOOTH",
"36 200 OFFCURVE",
"56 220 OFFCURVE",
"80 220 CURVE SMOOTH",
"104 220 OFFCURVE",
"124 200 OFFCURVE",
"124 176 CURVE SMOOTH",
"124 152 OFFCURVE",
"104 132 OFFCURVE",
"80 132 CURVE SMOOTH"
);
},
{
closed = 1;
nodes = (
"56 308 OFFCURVE",
"36 328 OFFCURVE",
"36 352 CURVE SMOOTH",
"36 376 OFFCURVE",
"56 396 OFFCURVE",
"80 396 CURVE SMOOTH",
"104 396 OFFCURVE",
"124 376 OFFCURVE",
"124 352 CURVE SMOOTH",
"124 328 OFFCURVE",
"104 308 OFFCURVE",
"80 308 CURVE SMOOTH"
);
},
{
closed = 1;
nodes = (
"56 484 OFFCURVE",
"36 504 OFFCURVE",
"36 528 CURVE SMOOTH",
"36 552 OFFCURVE",
"56 572 OFFCURVE",
"80 572 CURVE SMOOTH",
"104 572 OFFCURVE",
"124 552 OFFCURVE",
"124 528 CURVE SMOOTH",
"124 504 OFFCURVE",
"104 484 OFFCURVE",
"80 484 CURVE SMOOTH"
);
},
{
closed = 1;
nodes = (
"212 132 LINE SMOOTH",
"188 132 OFFCURVE",
"168 152 OFFCURVE",
"168 176 CURVE SMOOTH",
"168 200 OFFCURVE",
"188 220 OFFCURVE",
"212 220 CURVE SMOOTH",
"520 220 LINE SMOOTH",
"544 220 OFFCURVE",
"564 200 OFFCURVE",
"564 176 CURVE SMOOTH",
"564 152 OFFCURVE",
"544 132 OFFCURVE",
"520 132 CURVE SMOOTH"
);
},
{
closed = 1;
nodes = (
"212 308 LINE SMOOTH",
"188 308 OFFCURVE",
"168 328 OFFCURVE",
"168 352 CURVE SMOOTH",
"168 376 OFFCURVE",
"188 396 OFFCURVE",
"212 396 CURVE SMOOTH",
"520 396 LINE SMOOTH",
"544 396 OFFCURVE",
"564 376 OFFCURVE",
"564 352 CURVE SMOOTH",
"564 328 OFFCURVE",
"544 308 OFFCURVE",
"520 308 CURVE SMOOTH"
);
},
{
closed = 1;
nodes = (
"212 484 LINE SMOOTH",
"188 484 OFFCURVE",
"168 504 OFFCURVE",
"168 528 CURVE SMOOTH",
"168 552 OFFCURVE",
"188 572 OFFCURVE",
"212 572 CURVE SMOOTH",
"520 572 LINE SMOOTH",
"544 572 OFFCURVE",
"564 552 OFFCURVE",
"564 528 CURVE SMOOTH",
"564 504 OFFCURVE",
"544 484 OFFCURVE",
"520 484 CURVE SMOOTH"
);
}
);
width = 600;
}
);
unicode = F077;
},
{
glyphname = unif078;
lastChange = "2012-05-29 10:18:41 +0000";
layers = (
{
layerId = "5DF6A5AF-1C8C-47E3-A702-CFF98FD4A394";
name = Regular;
paths = (
{
closed = 1;
nodes = (
"36 704 LINE SMOOTH",
"-13 704 OFFCURVE",
"-52 665 OFFCURVE",
"-52 616 CURVE SMOOTH",
"-52 88 LINE SMOOTH",
"-52 39 OFFCURVE",
"-13 0 OFFCURVE",
"36 0 CURVE SMOOTH",
"564 0 LINE SMOOTH",
"613 0 OFFCURVE",
"652 39 OFFCURVE",
"652 88 CURVE SMOOTH",
"652 616 LINE SMOOTH",
"652 665 OFFCURVE",
"613 704 OFFCURVE",
"564 704 CURVE SMOOTH"
);
},
{
closed = 1;
nodes = (
"256 148 OFFCURVE",
"240 132 OFFCURVE",
"221 132 CURVE SMOOTH",
"115 132 LINE SMOOTH",
"96 132 OFFCURVE",
"80 148 OFFCURVE",
"80 167 CURVE SMOOTH",
"80 273 LINE SMOOTH",
"80 292 OFFCURVE",
"96 308 OFFCURVE",
"115 308 CURVE SMOOTH",
"221 308 LINE SMOOTH",
"240 308 OFFCURVE",
"256 292 OFFCURVE",
"256 273 CURVE SMOOTH",
"256 167 LINE SMOOTH"
);
},
{
closed = 1;
nodes = (
"256 412 OFFCURVE",
"240 396 OFFCURVE",
"221 396 CURVE SMOOTH",
"115 396 LINE SMOOTH",
"96 396 OFFCURVE",
"80 412 OFFCURVE",
"80 431 CURVE SMOOTH",
"80 537 LINE SMOOTH",
"80 556 OFFCURVE",
"96 572 OFFCURVE",
"115 572 CURVE SMOOTH",
"221 572 LINE SMOOTH",
"240 572 OFFCURVE",
"256 556 OFFCURVE",
"256 537 CURVE SMOOTH",
"256 431 LINE SMOOTH"
);
},
{
closed = 1;
nodes = (
"520 148 OFFCURVE",
"504 132 OFFCURVE",
"485 132 CURVE SMOOTH",
"379 132 LINE SMOOTH",
"360 132 OFFCURVE",
"344 148 OFFCURVE",
"344 167 CURVE SMOOTH",
"344 273 LINE SMOOTH",
"344 292 OFFCURVE",
"360 308 OFFCURVE",
"379 308 CURVE SMOOTH",
"485 308 LINE SMOOTH",
"504 308 OFFCURVE",
"520 292 OFFCURVE",
"520 273 CURVE SMOOTH",
"520 167 LINE SMOOTH"
);
},
{
closed = 1;
nodes = (
"520 412 OFFCURVE",
"504 396 OFFCURVE",
"485 396 CURVE SMOOTH",
"379 396 LINE SMOOTH",
"360 396 OFFCURVE",
"344 412 OFFCURVE",
"344 431 CURVE SMOOTH",
"344 537 LINE SMOOTH",
"344 556 OFFCURVE",
"360 572 OFFCURVE",
"379 572 CURVE SMOOTH",
"485 572 LINE SMOOTH",
"504 572 OFFCURVE",
"520 556 OFFCURVE",
"520 537 CURVE SMOOTH",
"520 431 LINE SMOOTH"
);
}
);
width = 600;
}
);
unicode = F078;
},
{
glyphname = unif079;
lastChange = "2012-05-29 10:18:54 +0000";
layers = (
{
layerId = "5DF6A5AF-1C8C-47E3-A702-CFF98FD4A394";
name = Regular;
paths = (
{
closed = 1;
nodes = (
"344 660 LINE",
"388 660 LINE",
"388 704 LINE",
"212 704 LINE",
"212 660 LINE",
"256 660 LINE",
"256 613 LINE",
"107 592 OFFCURVE",
"-8 463 OFFCURVE",
"-8 308 CURVE SMOOTH",
"-8 138 OFFCURVE",
"130 0 OFFCURVE",
"300 0 CURVE SMOOTH",
"470 0 OFFCURVE",
"608 138 OFFCURVE",
"608 308 CURVE SMOOTH",
"608 463 OFFCURVE",
"493 592 OFFCURVE",
"344 613 CURVE"
);
},
{
closed = 1;
nodes = (
"187 103 OFFCURVE",
"95 195 OFFCURVE",
"95 308 CURVE SMOOTH",
"95 421 OFFCURVE",
"187 513 OFFCURVE",
"300 513 CURVE SMOOTH",
"413 513 OFFCURVE",
"505 421 OFFCURVE",
"505 308 CURVE SMOOTH",
"505 195 OFFCURVE",
"413 103 OFFCURVE",
"300 103 CURVE SMOOTH"
);
},
{
closed = 1;
nodes = (
"276 484 OFFCURVE",
"256 464 OFFCURVE",
"256 440 CURVE SMOOTH",
"256 308 LINE SMOOTH",
"256 284 OFFCURVE",
"276 264 OFFCURVE",
"300 264 CURVE SMOOTH",
"324 264 OFFCURVE",
"344 284 OFFCURVE",
"344 308 CURVE SMOOTH",
"344 440 LINE SMOOTH",
"344 464 OFFCURVE",
"324 484 OFFCURVE",
"300 484 CURVE SMOOTH"
);
}
);
width = 600;
}
);
unicode = F079;
},
{
glyphname = unif07a;
lastChange = "2012-05-29 10:19:14 +0000";
layers = (
{
layerId = "5DF6A5AF-1C8C-47E3-A702-CFF98FD4A394";
name = Regular;
paths = (
{
closed = 1;
nodes = (
"106 704 OFFCURVE",
"-52 546 OFFCURVE",
"-52 352 CURVE SMOOTH",
"-52 158 OFFCURVE",
"106 0 OFFCURVE",
"300 0 CURVE SMOOTH",
"494 0 OFFCURVE",
"652 158 OFFCURVE",
"652 352 CURVE SMOOTH",
"652 546 OFFCURVE",
"494 704 OFFCURVE",
"300 704 CURVE SMOOTH"
);
},
{
closed = 1;
nodes = (
"154 88 OFFCURVE",
"36 206 OFFCURVE",
"36 352 CURVE SMOOTH",
"36 498 OFFCURVE",
"154 616 OFFCURVE",
"300 616 CURVE SMOOTH",
"446 616 OFFCURVE",
"564 498 OFFCURVE",
"564 352 CURVE SMOOTH",
"564 206 OFFCURVE",
"446 88 OFFCURVE",
"300 88 CURVE SMOOTH"
);
},
{
closed = 1;
nodes = (
"344 396 LINE",
"344 528 LINE SMOOTH",
"344 552 OFFCURVE",
"324 572 OFFCURVE",
"300 572 CURVE SMOOTH",
"276 572 OFFCURVE",
"256 552 OFFCURVE",
"256 528 CURVE SMOOTH",
"256 352 LINE SMOOTH",
"256 328 OFFCURVE",
"276 308 OFFCURVE",
"300 308 CURVE SMOOTH",
"476 308 LINE SMOOTH",
"500 308 OFFCURVE",
"520 328 OFFCURVE",
"520 352 CURVE SMOOTH",
"520 376 OFFCURVE",
"500 396 OFFCURVE",
"476 396 CURVE SMOOTH"
);
}
);
width = 600;
}
);
unicode = F07A;
},
{
glyphname = unif07b;
lastChange = "2012-05-29 10:19:24 +0000";
layers = (
{
layerId = "5DF6A5AF-1C8C-47E3-A702-CFF98FD4A394";
name = Regular;
paths = (
{
closed = 1;
nodes = (
"476 283 OFFCURVE",
"406 352 OFFCURVE",
"300 352 CURVE SMOOTH",
"194 352 OFFCURVE",
"124 283 OFFCURVE",
"124 198 CURVE SMOOTH",
"124 44 LINE",
"36 44 LINE",
"36 0 LINE",
"564 0 LINE",
"564 44 LINE",
"476 44 LINE",
"476 198 LINE SMOOTH"
);
},
{
closed = 1;
nodes = (
"168 44 LINE",
"168 132 LINE",
"432 132 LINE",
"432 44 LINE"
);
},
{
closed = 1;
nodes = (
"36 660 LINE",
"124 660 LINE",
"124 506 LINE SMOOTH",
"124 421 OFFCURVE",
"194 352 OFFCURVE",
"300 352 CURVE SMOOTH",
"406 352 OFFCURVE",
"476 421 OFFCURVE",
"476 506 CURVE SMOOTH",
"476 660 LINE",
"564 660 LINE",
"564 704 LINE",
"36 704 LINE"
);
},
{
closed = 1;
nodes = (
"227 396 OFFCURVE",
"168 435 OFFCURVE",
"168 484 CURVE",
"432 484 LINE",
"432 435 OFFCURVE",
"373 396 OFFCURVE",
"300 396 CURVE SMOOTH"
);
}
);
width = 600;
}
);
unicode = F07B;
},
{
glyphname = unif07c;
lastChange = "2012-05-29 10:19:34 +0000";
layers = (
{
layerId = "5DF6A5AF-1C8C-47E3-A702-CFF98FD4A394";
name = Regular;
paths = (
{
closed = 1;
nodes = (
"564 704 LINE",
"36 704 LINE",
"-52 484 LINE",
"-52 452 OFFCURVE",
"-34 423 OFFCURVE",
"-8 408 CURVE",
"-8 0 LINE",
"608 0 LINE",
"608 408 LINE",
"634 423 OFFCURVE",
"652 452 OFFCURVE",
"652 484 CURVE"
);
},
{
closed = 1;
nodes = (
"80 408 LINE",
"106 423 OFFCURVE",
"124 452 OFFCURVE",
"124 484 CURVE",
"124 435 OFFCURVE",
"163 396 OFFCURVE",
"212 396 CURVE SMOOTH",
"261 396 OFFCURVE",
"300 435 OFFCURVE",
"300 484 CURVE",
"300 435 OFFCURVE",
"339 396 OFFCURVE",
"388 396 CURVE SMOOTH",
"437 396 OFFCURVE",
"476 435 OFFCURVE",
"476 484 CURVE",
"476 452 OFFCURVE",
"494 423 OFFCURVE",
"520 408 CURVE",
"520 176 LINE",
"80 176 LINE"
);
}
);
width = 600;
}
);
unicode = F07C;
},
